<svg width="75" height="24" viewBox="0 0 75 24" fill="none" xmlns="http://www.w3.org/2000/svg">
<rect width="75" height="24" rx="5" fill="#FDAD1E"/>
<path d="M12.0874 16H10.4878V8.05273H6.41895V16H4.81934V6.75781H12.0874V16ZM19.895 12.6357C19.895 13.6979 19.6538 14.5464 19.1714 15.1812C18.689 15.8117 18.0415 16.127 17.229 16.127C16.4757 16.127 15.8727 15.8794 15.4199 15.3843V18.6406H13.8774V9.13184H15.2993L15.3628 9.83008C15.8156 9.27995 16.4313 9.00488 17.21 9.00488C18.0479 9.00488 18.7038 9.31803 19.1777 9.94434C19.6559 10.5664 19.895 11.4318 19.895 12.5405V12.6357ZM18.3589 12.5024C18.3589 11.8169 18.2214 11.2731 17.9463 10.8711C17.6755 10.4691 17.2861 10.2681 16.7783 10.2681C16.1478 10.2681 15.695 10.5283 15.4199 11.0488V14.0957C15.6992 14.6289 16.1562 14.8955 16.791 14.8955C17.2819 14.8955 17.6649 14.6987 17.9399 14.3052C18.2192 13.9074 18.3589 13.3065 18.3589 12.5024ZM25.4937 9.13184H27.0298V16H25.4937V11.417L22.8022 16H21.2661V9.13184H22.8022V13.7148L25.4937 9.13184ZM32.749 14.1021L34.7803 9.13184H36.71V16H35.1675V11.4551L33.2759 16H32.2285L30.3306 11.4297V16H28.7881V9.13184H30.7305L32.749 14.1021ZM41.4707 16.127C40.4932 16.127 39.6997 15.8201 39.0903 15.2065C38.4852 14.5887 38.1826 13.7677 38.1826 12.7437V12.5532C38.1826 11.8677 38.3138 11.2562 38.5762 10.7188C38.8428 10.1771 39.2152 9.75602 39.6934 9.45557C40.1715 9.15511 40.7048 9.00488 41.293 9.00488C42.2282 9.00488 42.9497 9.30322 43.4575 9.8999C43.9696 10.4966 44.2256 11.3408 44.2256 12.4326V13.0547H39.7378C39.7843 13.6217 39.9727 14.0703 40.3027 14.4004C40.637 14.7305 41.056 14.8955 41.5596 14.8955C42.2663 14.8955 42.8418 14.6099 43.2861 14.0386L44.1177 14.832C43.8426 15.2425 43.4744 15.562 43.0132 15.7905C42.5562 16.0148 42.042 16.127 41.4707 16.127ZM41.2866 10.2427C40.8634 10.2427 40.5207 10.3908 40.2583 10.687C40.0002 10.9832 39.8351 11.3958 39.7632 11.9248H42.7021V11.8105C42.6683 11.2943 42.5308 10.9049 42.2896 10.6426C42.0483 10.376 41.714 10.2427 41.2866 10.2427ZM51.2461 16H49.7036V13.2261H47.0312V16H45.4888V9.13184H47.0312V11.9946H49.7036V9.13184H51.2461V16ZM57.1812 9.13184H58.7173V16H57.1812V11.417L54.4897 16H52.9536V9.13184H54.4897V13.7148L57.1812 9.13184ZM65.7632 10.3569H63.5352V16H61.9927V10.3569H59.79V9.13184H65.7632V10.3569ZM68.4546 11.3154H69.9653C70.5282 11.3154 71.019 11.4128 71.438 11.6074C71.8569 11.8021 72.1743 12.075 72.3901 12.4263C72.6102 12.7775 72.7202 13.1859 72.7202 13.6514C72.7202 14.3581 72.4705 14.9251 71.9712 15.3525C71.4718 15.7799 70.8075 15.9958 69.978 16H66.9121V9.13184H68.4546V11.3154ZM68.4546 12.5532V14.7686H69.959C70.3356 14.7686 70.6318 14.6755 70.8477 14.4893C71.0677 14.2988 71.1777 14.0301 71.1777 13.6831C71.1777 13.3361 71.0698 13.0632 70.854 12.8643C70.6424 12.6611 70.3547 12.5575 69.9907 12.5532H68.4546Z" fill="#181B23"/>
</svg>
