<svg width="98" height="24" viewBox="0 0 98 24" fill="none" xmlns="http://www.w3.org/2000/svg">
<rect width="98" height="24" rx="5" fill="#FDAD1E"/>
<path d="M37.5298 16H35.9302V8.05273H31.8613V16H30.2617V6.75781H37.5298V16ZM43.6108 9.13184H45.147V16H43.6108V11.417L40.9194 16H39.3833V9.13184H40.9194V13.7148L43.6108 9.13184ZM46.8481 9.13184H48.3906V14.7686H51.0693V9.13184H52.6118V14.7686H53.5449L53.418 18.0376H52.0151V16H46.8481V9.13184ZM54.6938 9.13184H56.2363V14.7686H58.915V9.13184H60.4575V14.7686H61.3906L61.2637 18.0376H59.8608V16H54.6938V9.13184ZM66.583 16C66.5153 15.8688 66.4561 15.6551 66.4053 15.3589C65.9144 15.8709 65.3135 16.127 64.6025 16.127C63.9128 16.127 63.3499 15.9302 62.9141 15.5366C62.4782 15.1431 62.2603 14.6564 62.2603 14.0767C62.2603 13.3446 62.5311 12.7839 63.0728 12.3945C63.6187 12.001 64.3973 11.8042 65.4087 11.8042H66.3545V11.3535C66.3545 10.998 66.255 10.7145 66.0562 10.5029C65.8573 10.2871 65.5547 10.1792 65.1484 10.1792C64.7972 10.1792 64.5094 10.2681 64.2852 10.4458C64.0609 10.6193 63.9487 10.8415 63.9487 11.1123H62.4062C62.4062 10.7357 62.5311 10.3844 62.7808 10.0586C63.0304 9.72852 63.369 9.47038 63.7964 9.28418C64.228 9.09798 64.7083 9.00488 65.2373 9.00488C66.0413 9.00488 66.6825 9.20801 67.1606 9.61426C67.6388 10.0163 67.8843 10.5833 67.897 11.3154V14.4131C67.897 15.0309 67.9837 15.5239 68.1572 15.8921V16H66.583ZM64.8882 14.8892C65.1929 14.8892 65.4785 14.8151 65.7451 14.667C66.016 14.5189 66.2191 14.32 66.3545 14.0703V12.7754H65.5229C64.9517 12.7754 64.5221 12.8748 64.2344 13.0737C63.9466 13.2726 63.8027 13.554 63.8027 13.918C63.8027 14.2142 63.9001 14.4512 64.0947 14.6289C64.2936 14.8024 64.5581 14.8892 64.8882 14.8892Z" fill="black"/>
</svg>
