<svg width="98" height="24" viewBox="0 0 98 24" fill="none" xmlns="http://www.w3.org/2000/svg">
<rect width="98" height="24" rx="5" fill="#FDAD1E"/>
<path d="M31.0742 12.5659V16H29.4683V6.75781H33.0039C34.0365 6.75781 34.8553 7.02653 35.4604 7.56396C36.0698 8.1014 36.3745 8.81234 36.3745 9.69678C36.3745 10.6024 36.0762 11.307 35.4795 11.8105C34.887 12.3141 34.0555 12.5659 32.9849 12.5659H31.0742ZM31.0742 11.2773H33.0039C33.5752 11.2773 34.0111 11.144 34.3115 10.8774C34.612 10.6066 34.7622 10.2173 34.7622 9.70947C34.7622 9.21012 34.6099 8.81234 34.3052 8.51611C34.0005 8.21566 33.5815 8.0612 33.0483 8.05273H31.0742V11.2773ZM37.2568 12.5024C37.2568 11.8296 37.3901 11.2244 37.6567 10.687C37.9233 10.1453 38.2979 9.73063 38.7803 9.44287C39.2627 9.15088 39.8171 9.00488 40.4434 9.00488C41.3701 9.00488 42.1213 9.30322 42.6968 9.8999C43.2765 10.4966 43.5897 11.2879 43.6362 12.2739L43.6426 12.6357C43.6426 13.3128 43.5114 13.918 43.249 14.4512C42.9909 14.9844 42.6185 15.397 42.1318 15.689C41.6494 15.981 41.0908 16.127 40.4561 16.127C39.487 16.127 38.7104 15.8053 38.1265 15.1621C37.5467 14.5146 37.2568 13.6535 37.2568 12.5786V12.5024ZM38.7993 12.6357C38.7993 13.3424 38.9453 13.8968 39.2373 14.2988C39.5293 14.6966 39.9355 14.8955 40.4561 14.8955C40.9766 14.8955 41.3807 14.6924 41.6685 14.2861C41.9604 13.8799 42.1064 13.2853 42.1064 12.5024C42.1064 11.8084 41.9562 11.2583 41.6558 10.8521C41.3595 10.4458 40.9554 10.2427 40.4434 10.2427C39.9398 10.2427 39.5399 10.4437 39.2437 10.8457C38.9474 11.2435 38.7993 11.8402 38.7993 12.6357ZM50.6821 9.13184V16H49.1396V10.376H47.1973L47.0703 12.769C46.9899 13.9201 46.7677 14.7474 46.4038 15.251C46.0441 15.7503 45.4919 16 44.7471 16H44.271L44.2646 14.7178L44.582 14.686C44.9206 14.6395 45.166 14.4342 45.3184 14.0703C45.4749 13.7021 45.5744 13.0335 45.6167 12.0645L45.7437 9.13184H50.6821ZM58.1597 9.13184V16H56.6172V10.376H54.6748L54.5479 12.769C54.4674 13.9201 54.2453 14.7474 53.8813 15.251C53.5216 15.7503 52.9694 16 52.2246 16H51.7485L51.7422 14.7178L52.0596 14.686C52.3981 14.6395 52.6436 14.4342 52.7959 14.0703C52.9525 13.7021 53.0519 13.0335 53.0942 12.0645L53.2212 9.13184H58.1597ZM61.4604 11.3154H62.9712C63.534 11.3154 64.0249 11.4128 64.4438 11.6074C64.8628 11.8021 65.1802 12.075 65.396 12.4263C65.616 12.7775 65.7261 13.1859 65.7261 13.6514C65.7261 14.3581 65.4764 14.9251 64.9771 15.3525C64.4777 15.7799 63.8133 15.9958 62.9839 16H59.918V9.13184H61.4604V11.3154ZM68.4111 16H66.8687V9.13184H68.4111V16ZM61.4604 12.5532V14.7686H62.9648C63.3415 14.7686 63.6377 14.6755 63.8535 14.4893C64.0736 14.2988 64.1836 14.0301 64.1836 13.6831C64.1836 13.3361 64.0757 13.0632 63.8599 12.8643C63.6483 12.6611 63.3605 12.5575 62.9966 12.5532H61.4604Z" fill="black"/>
</svg>
