<svg width="98" height="24" viewBox="0 0 98 24" fill="none" xmlns="http://www.w3.org/2000/svg">
<rect width="98" height="24" rx="5" fill="#FDAD1E"/>
<path d="M12.4248 12.5659V16H10.8188V6.75781H14.3545C15.387 6.75781 16.2059 7.02653 16.811 7.56396C17.4204 8.1014 17.7251 8.81234 17.7251 9.69678C17.7251 10.6024 17.4268 11.307 16.8301 11.8105C16.2376 12.3141 15.4061 12.5659 14.3354 12.5659H12.4248ZM12.4248 11.2773H14.3545C14.9258 11.2773 15.3617 11.144 15.6621 10.8774C15.9626 10.6066 16.1128 10.2173 16.1128 9.70947C16.1128 9.21012 15.9604 8.81234 15.6558 8.51611C15.3511 8.21566 14.9321 8.0612 14.3989 8.05273H12.4248V11.2773ZM21.9209 16.127C20.9434 16.127 20.1499 15.8201 19.5405 15.2065C18.9354 14.5887 18.6328 13.7677 18.6328 12.7437V12.5532C18.6328 11.8677 18.764 11.2562 19.0264 10.7188C19.293 10.1771 19.6654 9.75602 20.1436 9.45557C20.6217 9.15511 21.1549 9.00488 21.7432 9.00488C22.6784 9.00488 23.3999 9.30322 23.9077 9.8999C24.4198 10.4966 24.6758 11.3408 24.6758 12.4326V13.0547H20.188C20.2345 13.6217 20.4229 14.0703 20.7529 14.4004C21.0872 14.7305 21.5062 14.8955 22.0098 14.8955C22.7165 14.8955 23.292 14.6099 23.7363 14.0386L24.5679 14.832C24.2928 15.2425 23.9246 15.562 23.4634 15.7905C23.0063 16.0148 22.4922 16.127 21.9209 16.127ZM21.7368 10.2427C21.3136 10.2427 20.9709 10.3908 20.7085 10.687C20.4504 10.9832 20.2853 11.3958 20.2134 11.9248H23.1523V11.8105C23.1185 11.2943 22.981 10.9049 22.7397 10.6426C22.4985 10.376 22.1642 10.2427 21.7368 10.2427ZM30.4521 10.376H27.4688V16H25.9326V9.13184H30.4521V10.376ZM35.6128 9.13184H37.1489V16H35.6128V11.417L32.9214 16H31.3853V9.13184H32.9214V13.7148L35.6128 9.13184ZM41.6113 14.8955C41.9964 14.8955 42.3159 14.7834 42.5698 14.5591C42.8237 14.3348 42.9591 14.0576 42.9761 13.7275H44.4297C44.4128 14.1549 44.2795 14.5549 44.0298 14.9272C43.7801 15.2954 43.4416 15.5874 43.0142 15.8032C42.5868 16.019 42.1255 16.127 41.6304 16.127C40.6698 16.127 39.908 15.8159 39.3452 15.1938C38.7824 14.5718 38.501 13.7127 38.501 12.6167V12.458C38.501 11.4128 38.7803 10.577 39.3389 9.95068C39.8975 9.32015 40.6592 9.00488 41.624 9.00488C42.4408 9.00488 43.1051 9.24398 43.6172 9.72217C44.1335 10.1961 44.4043 10.8203 44.4297 11.5947H42.9761C42.9591 11.2012 42.8237 10.8774 42.5698 10.6235C42.3201 10.3696 42.0007 10.2427 41.6113 10.2427C41.112 10.2427 40.7269 10.4246 40.4561 10.7886C40.1852 11.1483 40.0477 11.6963 40.0435 12.4326V12.6802C40.0435 13.425 40.1768 13.9814 40.4434 14.3496C40.7142 14.7135 41.1035 14.8955 41.6113 14.8955ZM50.9995 10.3569H48.7715V16H47.229V10.3569H45.0264V9.13184H50.9995V10.3569ZM58.0454 12.6357C58.0454 13.6979 57.8042 14.5464 57.3218 15.1812C56.8394 15.8117 56.1919 16.127 55.3794 16.127C54.6261 16.127 54.0231 15.8794 53.5703 15.3843V18.6406H52.0278V9.13184H53.4497L53.5132 9.83008C53.966 9.27995 54.5817 9.00488 55.3604 9.00488C56.1982 9.00488 56.8542 9.31803 57.3281 9.94434C57.8063 10.5664 58.0454 11.4318 58.0454 12.5405V12.6357ZM56.5093 12.5024C56.5093 11.8169 56.3717 11.2731 56.0967 10.8711C55.8258 10.4691 55.4365 10.2681 54.9287 10.2681C54.2982 10.2681 53.8454 10.5283 53.5703 11.0488V14.0957C53.8496 14.6289 54.3066 14.8955 54.9414 14.8955C55.4323 14.8955 55.8153 14.6987 56.0903 14.3052C56.3696 13.9074 56.5093 13.3065 56.5093 12.5024ZM63.46 16C63.3923 15.8688 63.333 15.6551 63.2822 15.3589C62.7913 15.8709 62.1904 16.127 61.4795 16.127C60.7897 16.127 60.2269 15.9302 59.791 15.5366C59.3551 15.1431 59.1372 14.6564 59.1372 14.0767C59.1372 13.3446 59.408 12.7839 59.9497 12.3945C60.4956 12.001 61.2743 11.8042 62.2856 11.8042H63.2314V11.3535C63.2314 10.998 63.132 10.7145 62.9331 10.5029C62.7342 10.2871 62.4316 10.1792 62.0254 10.1792C61.6742 10.1792 61.3864 10.2681 61.1621 10.4458C60.9378 10.6193 60.8257 10.8415 60.8257 11.1123H59.2832C59.2832 10.7357 59.408 10.3844 59.6577 10.0586C59.9074 9.72852 60.2459 9.47038 60.6733 9.28418C61.105 9.09798 61.5853 9.00488 62.1143 9.00488C62.9183 9.00488 63.5594 9.20801 64.0376 9.61426C64.5158 10.0163 64.7612 10.5833 64.7739 11.3154V14.4131C64.7739 15.0309 64.8607 15.5239 65.0342 15.8921V16H63.46ZM61.7651 14.8892C62.0698 14.8892 62.3555 14.8151 62.6221 14.667C62.8929 14.5189 63.096 14.32 63.2314 14.0703V12.7754H62.3999C61.8286 12.7754 61.3991 12.8748 61.1113 13.0737C60.8236 13.2726 60.6797 13.554 60.6797 13.918C60.6797 14.2142 60.777 14.4512 60.9717 14.6289C61.1706 14.8024 61.4351 14.8892 61.7651 14.8892ZM66.4497 9.13184H67.9922V14.7686H70.6709V9.13184H72.2134V14.7686H73.1465L73.0195 18.0376H71.6167V16H66.4497V9.13184ZM78.5229 9.13184H80.0591V16H78.5229V11.417L75.8315 16H74.2954V9.13184H75.8315V13.7148L78.5229 9.13184ZM87.2002 9.13184V16H85.6641V13.48H84.2231L82.7568 16H81.1572L82.7759 13.2261C82.3527 13.0483 82.0269 12.7944 81.7983 12.4644C81.5741 12.1343 81.4619 11.7555 81.4619 11.3281C81.4619 10.6891 81.7074 10.1665 82.1982 9.76025C82.6934 9.34977 83.3599 9.1403 84.1978 9.13184H87.2002ZM83.0044 11.3662C83.0044 11.654 83.1102 11.8888 83.3218 12.0708C83.5376 12.2485 83.8127 12.3374 84.147 12.3374H85.6641V10.3569H84.2422C83.8656 10.3569 83.5651 10.4521 83.3408 10.6426C83.1165 10.833 83.0044 11.0742 83.0044 11.3662Z" fill="black"/>
</svg>
