<svg width="175" height="29" viewBox="0 0 175 29" fill="none" xmlns="http://www.w3.org/2000/svg">
<rect width="175" height="29" rx="14.5" fill="#FDAD1E"/>
<path d="M40.9551 14.2832C40.9551 15.2585 40.7865 16.1152 40.4492 16.8535C40.112 17.5872 39.6289 18.1523 39 18.5488C38.3757 18.9408 37.6556 19.1367 36.8398 19.1367C36.0332 19.1367 35.3132 18.9408 34.6797 18.5488C34.0508 18.1523 33.5632 17.5895 33.2168 16.8604C32.875 16.1312 32.7018 15.2904 32.6973 14.3379V13.7773C32.6973 12.8066 32.8682 11.9499 33.21 11.207C33.5563 10.4642 34.0417 9.89681 34.666 9.50488C35.2949 9.1084 36.015 8.91016 36.8262 8.91016C37.6374 8.91016 38.3551 9.10612 38.9795 9.49805C39.6084 9.88542 40.0938 10.446 40.4355 11.1797C40.7773 11.9089 40.9505 12.7588 40.9551 13.7295V14.2832ZM39.2256 13.7637C39.2256 12.6608 39.016 11.8154 38.5967 11.2275C38.182 10.6396 37.5918 10.3457 36.8262 10.3457C36.0788 10.3457 35.4932 10.6396 35.0693 11.2275C34.6501 11.8109 34.4359 12.638 34.4268 13.709V14.2832C34.4268 15.377 34.6387 16.2223 35.0625 16.8193C35.4909 17.4163 36.0833 17.7148 36.8398 17.7148C37.6055 17.7148 38.1934 17.4232 38.6035 16.8398C39.0182 16.2565 39.2256 15.4043 39.2256 14.2832V13.7637ZM42.2402 15.4043C42.2402 14.1966 42.4772 13.2396 42.9512 12.5332C43.4297 11.8223 44.0951 11.4668 44.9473 11.4668C45.2936 11.4668 45.6081 11.5306 45.8906 11.6582V8.5H47.5449V11.6855C47.8366 11.5397 48.1784 11.4668 48.5703 11.4668C49.418 11.4668 50.0811 11.82 50.5596 12.5264C51.0426 13.2282 51.2842 14.2354 51.2842 15.5479C51.2842 16.6553 51.0426 17.5303 50.5596 18.1729C50.0765 18.8154 49.418 19.1367 48.584 19.1367C48.2057 19.1367 47.8594 19.0684 47.5449 18.9316V21.8438H45.8906V18.959C45.6126 19.0775 45.2936 19.1367 44.9336 19.1367C44.1361 19.1367 43.498 18.8428 43.0195 18.2549C42.5456 17.6624 42.2881 16.849 42.2471 15.8145L42.2402 15.4043ZM49.623 15.4043C49.623 14.5749 49.4909 13.9346 49.2266 13.4834C48.9622 13.0277 48.5885 12.7998 48.1055 12.7998C47.9004 12.7998 47.7135 12.8294 47.5449 12.8887V17.7422C47.6953 17.7878 47.8867 17.8105 48.1191 17.8105C49.1217 17.8105 49.623 17.0085 49.623 15.4043ZM43.8945 15.5479C43.8945 16.2861 44.0176 16.849 44.2637 17.2363C44.5098 17.6191 44.8743 17.8105 45.3574 17.8105C45.5625 17.8105 45.7402 17.7878 45.8906 17.7422V12.8682C45.7357 12.8226 45.5625 12.7998 45.3711 12.7998C44.8971 12.7998 44.5326 13.0208 44.2773 13.4629C44.0221 13.9004 43.8945 14.5954 43.8945 15.5479ZM52.4053 15.2334C52.4053 14.5088 52.5488 13.8571 52.8359 13.2783C53.123 12.695 53.5264 12.2484 54.0459 11.9385C54.5654 11.624 55.1624 11.4668 55.8369 11.4668C56.835 11.4668 57.6439 11.7881 58.2637 12.4307C58.888 13.0732 59.2253 13.9255 59.2754 14.9873L59.2822 15.377C59.2822 16.1061 59.141 16.7578 58.8584 17.332C58.5804 17.9062 58.1794 18.3506 57.6553 18.665C57.1357 18.9795 56.5342 19.1367 55.8506 19.1367C54.807 19.1367 53.9707 18.7904 53.3418 18.0977C52.7174 17.4004 52.4053 16.473 52.4053 15.3154V15.2334ZM54.0664 15.377C54.0664 16.138 54.2236 16.735 54.5381 17.168C54.8525 17.5964 55.29 17.8105 55.8506 17.8105C56.4111 17.8105 56.8464 17.5918 57.1562 17.1543C57.4707 16.7168 57.6279 16.0765 57.6279 15.2334C57.6279 14.486 57.4661 13.8936 57.1426 13.4561C56.8236 13.0186 56.3883 12.7998 55.8369 12.7998C55.2946 12.7998 54.8639 13.0163 54.5449 13.4492C54.2259 13.8776 54.0664 14.5202 54.0664 15.377ZM67.1641 15.377C67.1641 16.5208 66.9043 17.4346 66.3848 18.1182C65.8652 18.7972 65.168 19.1367 64.293 19.1367C63.4818 19.1367 62.8324 18.8701 62.3447 18.3369V21.8438H60.6836V11.6035H62.2148L62.2832 12.3555C62.7708 11.763 63.4339 11.4668 64.2725 11.4668C65.1748 11.4668 65.8812 11.804 66.3916 12.4785C66.9066 13.1484 67.1641 14.0804 67.1641 15.2744V15.377ZM65.5098 15.2334C65.5098 14.4951 65.3617 13.9095 65.0654 13.4766C64.7738 13.0436 64.3545 12.8271 63.8076 12.8271C63.1286 12.8271 62.641 13.1074 62.3447 13.668V16.9492C62.6455 17.5234 63.1377 17.8105 63.8213 17.8105C64.3499 17.8105 64.7624 17.5986 65.0586 17.1748C65.3594 16.7464 65.5098 16.0993 65.5098 15.2334ZM72.9678 16.9561L75.1553 11.6035H77.2334V19H75.5723V14.1055L73.5352 19H72.4072L70.3633 14.0781V19H68.7021V11.6035H70.7939L72.9678 16.9561ZM83.7207 11.6035H85.375V19H83.7207V14.0645L80.8223 19H79.168V11.6035H80.8223V16.5391L83.7207 11.6035ZM92.9629 12.9229H90.5635V19H88.9023V12.9229H86.5303V11.6035H92.9629V12.9229ZM95.8613 13.9551H97.4883C98.0944 13.9551 98.623 14.0599 99.0742 14.2695C99.5254 14.4792 99.8672 14.7731 100.1 15.1514C100.337 15.5296 100.455 15.9694 100.455 16.4707C100.455 17.2318 100.186 17.8424 99.6484 18.3027C99.1107 18.763 98.3952 18.9954 97.502 19H94.2002V11.6035H95.8613V13.9551ZM95.8613 15.2881V17.6738H97.4814C97.887 17.6738 98.2061 17.5736 98.4385 17.373C98.6755 17.168 98.7939 16.8786 98.7939 16.5049C98.7939 16.1312 98.6777 15.8372 98.4453 15.623C98.2174 15.4043 97.9076 15.2926 97.5156 15.2881H95.8613ZM110.873 13.627C110.873 13.9551 110.773 14.2581 110.572 14.5361C110.376 14.8096 110.098 15.0283 109.738 15.1924C110.586 15.4886 111.01 16.0605 111.01 16.9082C111.01 17.5872 110.734 18.1296 110.183 18.5352C109.631 18.9362 108.893 19.1367 107.968 19.1367C107.403 19.1367 106.888 19.0433 106.423 18.8564C105.958 18.665 105.596 18.3962 105.336 18.0498C105.076 17.6989 104.946 17.2842 104.946 16.8057H106.601C106.601 17.1064 106.735 17.3594 107.004 17.5645C107.273 17.765 107.612 17.8652 108.022 17.8652C108.428 17.8652 108.749 17.7718 108.986 17.585C109.228 17.3936 109.349 17.1452 109.349 16.8398C109.349 16.4798 109.244 16.2201 109.034 16.0605C108.825 15.901 108.501 15.8213 108.063 15.8213H106.874V14.625H108.104C108.847 14.6159 109.219 14.3105 109.219 13.709C109.219 13.4082 109.112 13.1735 108.897 13.0049C108.683 12.8363 108.389 12.752 108.016 12.752C107.651 12.752 107.343 12.8431 107.093 13.0254C106.842 13.2031 106.717 13.4287 106.717 13.7021H105.062C105.062 13.0505 105.336 12.5173 105.883 12.1025C106.43 11.6833 107.125 11.4736 107.968 11.4736C108.884 11.4736 109.597 11.6605 110.107 12.0342C110.618 12.4079 110.873 12.9388 110.873 13.627ZM116.841 19C116.768 18.8587 116.704 18.6286 116.649 18.3096C116.121 18.861 115.474 19.1367 114.708 19.1367C113.965 19.1367 113.359 18.9248 112.89 18.501C112.42 18.0771 112.186 17.5531 112.186 16.9287C112.186 16.1403 112.477 15.5365 113.061 15.1172C113.648 14.6934 114.487 14.4814 115.576 14.4814H116.595V13.9961C116.595 13.6133 116.488 13.3079 116.273 13.0801C116.059 12.8477 115.733 12.7314 115.296 12.7314C114.918 12.7314 114.608 12.8271 114.366 13.0186C114.125 13.2054 114.004 13.4447 114.004 13.7363H112.343C112.343 13.3307 112.477 12.9525 112.746 12.6016C113.015 12.2461 113.38 11.9681 113.84 11.7676C114.305 11.5671 114.822 11.4668 115.392 11.4668C116.257 11.4668 116.948 11.6855 117.463 12.123C117.978 12.556 118.242 13.1667 118.256 13.9551V17.291C118.256 17.9564 118.349 18.4873 118.536 18.8838V19H116.841ZM115.016 17.8037C115.344 17.8037 115.651 17.724 115.938 17.5645C116.23 17.4049 116.449 17.1908 116.595 16.9219V15.5273H115.699C115.084 15.5273 114.621 15.6344 114.312 15.8486C114.002 16.0628 113.847 16.3659 113.847 16.7578C113.847 17.0768 113.951 17.332 114.161 17.5234C114.375 17.7103 114.66 17.8037 115.016 17.8037ZM122.624 16.0742H121.783V19H120.122V11.6035H121.783V14.5566H122.515L124.559 11.6035H126.609L123.937 15.1445L126.835 19H124.675L122.624 16.0742ZM132.167 19C132.094 18.8587 132.03 18.6286 131.976 18.3096C131.447 18.861 130.8 19.1367 130.034 19.1367C129.291 19.1367 128.685 18.9248 128.216 18.501C127.746 18.0771 127.512 17.5531 127.512 16.9287C127.512 16.1403 127.803 15.5365 128.387 15.1172C128.975 14.6934 129.813 14.4814 130.902 14.4814H131.921V13.9961C131.921 13.6133 131.814 13.3079 131.6 13.0801C131.385 12.8477 131.06 12.7314 130.622 12.7314C130.244 12.7314 129.934 12.8271 129.692 13.0186C129.451 13.2054 129.33 13.4447 129.33 13.7363H127.669C127.669 13.3307 127.803 12.9525 128.072 12.6016C128.341 12.2461 128.706 11.9681 129.166 11.7676C129.631 11.5671 130.148 11.4668 130.718 11.4668C131.584 11.4668 132.274 11.6855 132.789 12.123C133.304 12.556 133.568 13.1667 133.582 13.9551V17.291C133.582 17.9564 133.675 18.4873 133.862 18.8838V19H132.167ZM130.342 17.8037C130.67 17.8037 130.978 17.724 131.265 17.5645C131.556 17.4049 131.775 17.1908 131.921 16.9219V15.5273H131.025C130.41 15.5273 129.948 15.6344 129.638 15.8486C129.328 16.0628 129.173 16.3659 129.173 16.7578C129.173 17.0768 129.278 17.332 129.487 17.5234C129.701 17.7103 129.986 17.8037 130.342 17.8037ZM140.924 13.627C140.924 13.9551 140.824 14.2581 140.623 14.5361C140.427 14.8096 140.149 15.0283 139.789 15.1924C140.637 15.4886 141.061 16.0605 141.061 16.9082C141.061 17.5872 140.785 18.1296 140.233 18.5352C139.682 18.9362 138.944 19.1367 138.019 19.1367C137.453 19.1367 136.938 19.0433 136.474 18.8564C136.009 18.665 135.646 18.3962 135.387 18.0498C135.127 17.6989 134.997 17.2842 134.997 16.8057H136.651C136.651 17.1064 136.786 17.3594 137.055 17.5645C137.324 17.765 137.663 17.8652 138.073 17.8652C138.479 17.8652 138.8 17.7718 139.037 17.585C139.279 17.3936 139.399 17.1452 139.399 16.8398C139.399 16.4798 139.295 16.2201 139.085 16.0605C138.875 15.901 138.552 15.8213 138.114 15.8213H136.925V14.625H138.155C138.898 14.6159 139.27 14.3105 139.27 13.709C139.27 13.4082 139.162 13.1735 138.948 13.0049C138.734 12.8363 138.44 12.752 138.066 12.752C137.702 12.752 137.394 12.8431 137.144 13.0254C136.893 13.2031 136.768 13.4287 136.768 13.7021H135.113C135.113 13.0505 135.387 12.5173 135.934 12.1025C136.48 11.6833 137.175 11.4736 138.019 11.4736C138.935 11.4736 139.648 11.6605 140.158 12.0342C140.669 12.4079 140.924 12.9388 140.924 13.627Z" fill="black"/>
</svg>
