<svg width="75" height="24" viewBox="0 0 75 24" fill="none" xmlns="http://www.w3.org/2000/svg">
<rect width="75" height="24" rx="5" fill="#FDAD1E"/>
<path d="M8.98975 16V6.75781H12.1572C13.2025 6.75781 13.998 6.96729 14.5439 7.38623C15.0898 7.80518 15.3628 8.42936 15.3628 9.25879C15.3628 9.68197 15.2485 10.0628 15.02 10.4014C14.7915 10.7399 14.4572 11.0023 14.0171 11.1885C14.5164 11.3239 14.9015 11.5799 15.1724 11.9565C15.4474 12.3289 15.585 12.7775 15.585 13.3022C15.585 14.1698 15.3057 14.8363 14.7471 15.3018C14.1927 15.7673 13.3971 16 12.3604 16H8.98975ZM10.5957 11.8296V14.7178H12.3794C12.883 14.7178 13.2765 14.5929 13.5601 14.3433C13.8436 14.0936 13.9854 13.7466 13.9854 13.3022C13.9854 12.3416 13.4945 11.8507 12.5127 11.8296H10.5957ZM10.5957 10.6489H12.1699C12.6693 10.6489 13.0586 10.5368 13.3379 10.3125C13.6214 10.084 13.7632 9.76237 13.7632 9.34766C13.7632 8.89062 13.632 8.56055 13.3696 8.35742C13.1115 8.1543 12.7074 8.05273 12.1572 8.05273H10.5957V10.6489ZM22.7197 13.2832H21.939V16H20.3965V9.13184H21.939V11.874H22.6182L24.5161 9.13184H26.4204L23.9385 12.4199L26.6299 16H24.624L22.7197 13.2832ZM26.8203 12.5024C26.8203 11.8296 26.9536 11.2244 27.2202 10.687C27.4868 10.1453 27.8613 9.73063 28.3438 9.44287C28.8262 9.15088 29.3805 9.00488 30.0068 9.00488C30.9336 9.00488 31.6847 9.30322 32.2603 9.8999C32.84 10.4966 33.1532 11.2879 33.1997 12.2739L33.2061 12.6357C33.2061 13.3128 33.0749 13.918 32.8125 14.4512C32.5544 14.9844 32.182 15.397 31.6953 15.689C31.2129 15.981 30.6543 16.127 30.0195 16.127C29.0505 16.127 28.2739 15.8053 27.6899 15.1621C27.1102 14.5146 26.8203 13.6535 26.8203 12.5786V12.5024ZM28.3628 12.6357C28.3628 13.3424 28.5088 13.8968 28.8008 14.2988C29.0928 14.6966 29.499 14.8955 30.0195 14.8955C30.54 14.8955 30.9442 14.6924 31.2319 14.2861C31.5239 13.8799 31.6699 13.2853 31.6699 12.5024C31.6699 11.8084 31.5197 11.2583 31.2192 10.8521C30.923 10.4458 30.5189 10.2427 30.0068 10.2427C29.5033 10.2427 29.1034 10.4437 28.8071 10.8457C28.5109 11.2435 28.3628 11.8402 28.3628 12.6357ZM40.5249 12.6357C40.5249 13.6979 40.2837 14.5464 39.8013 15.1812C39.3188 15.8117 38.6714 16.127 37.8589 16.127C37.1056 16.127 36.5026 15.8794 36.0498 15.3843V18.6406H34.5073V9.13184H35.9292L35.9927 9.83008C36.4455 9.27995 37.0612 9.00488 37.8398 9.00488C38.6777 9.00488 39.3337 9.31803 39.8076 9.94434C40.2858 10.5664 40.5249 11.4318 40.5249 12.5405V12.6357ZM38.9888 12.5024C38.9888 11.8169 38.8512 11.2731 38.5762 10.8711C38.3053 10.4691 37.916 10.2681 37.4082 10.2681C36.7777 10.2681 36.3249 10.5283 36.0498 11.0488V14.0957C36.3291 14.6289 36.7861 14.8955 37.4209 14.8955C37.9118 14.8955 38.2948 14.6987 38.5698 14.3052C38.8491 13.9074 38.9888 13.3065 38.9888 12.5024ZM47.0376 11.0107C47.0376 11.3154 46.9445 11.5968 46.7583 11.855C46.5763 12.1089 46.3182 12.312 45.9839 12.4644C46.771 12.7394 47.1646 13.2705 47.1646 14.0576C47.1646 14.6882 46.9085 15.1917 46.3965 15.5684C45.8844 15.9408 45.1989 16.127 44.3398 16.127C43.8151 16.127 43.3369 16.0402 42.9053 15.8667C42.4736 15.689 42.1372 15.4393 41.896 15.1177C41.6548 14.7918 41.5342 14.4067 41.5342 13.9624H43.0703C43.0703 14.2417 43.1951 14.4766 43.4448 14.667C43.6945 14.8532 44.0098 14.9463 44.3906 14.9463C44.7673 14.9463 45.0656 14.8595 45.2856 14.686C45.5099 14.5083 45.6221 14.2777 45.6221 13.9941C45.6221 13.6598 45.5247 13.4186 45.3301 13.2705C45.1354 13.1224 44.835 13.0483 44.4287 13.0483H43.3242V11.9375H44.4668C45.1566 11.929 45.5015 11.6455 45.5015 11.0869C45.5015 10.8076 45.402 10.5897 45.2031 10.4331C45.0042 10.2765 44.7313 10.1982 44.3843 10.1982C44.0457 10.1982 43.7601 10.2829 43.5273 10.4521C43.2946 10.6172 43.1782 10.8267 43.1782 11.0806H41.6421C41.6421 10.4754 41.896 9.98031 42.4038 9.59521C42.9116 9.20589 43.557 9.01123 44.3398 9.01123C45.1904 9.01123 45.8527 9.18473 46.3267 9.53174C46.8006 9.87874 47.0376 10.3717 47.0376 11.0107ZM52.7632 9.13184H54.2993V16H52.7632V11.417L50.0718 16H48.5356V9.13184H50.0718V13.7148L52.7632 9.13184ZM61.7578 16H60.2153V13.2261H57.543V16H56.0005V9.13184H57.543V11.9946H60.2153V9.13184H61.7578V16ZM65.8076 13.791L67.2041 9.13184H68.8481L66.1187 17.041C65.6997 18.1963 64.9888 18.7739 63.9858 18.7739C63.7616 18.7739 63.514 18.7358 63.2432 18.6597V17.4663L63.5352 17.4854C63.9245 17.4854 64.2165 17.4134 64.4111 17.2695C64.61 17.1299 64.7666 16.8929 64.8809 16.5586L65.103 15.9683L62.6909 9.13184H64.354L65.8076 13.791Z" fill="#181B23"/>
</svg>
