<svg width="52" height="36" viewBox="0 0 52 36" fill="none" xmlns="http://www.w3.org/2000/svg">
<path d="M24.217 34.3855C23.8054 34.2092 24.1915 34.2519 24.2613 34.2439C25.3259 34.2332 26.3905 34.2305 27.4551 34.2265C27.8104 34.2265 28.1657 34.2265 28.5022 34.0796C28.8053 34.0796 29.111 34.0368 29.3952 34.1704V34.3855H24.217Z" fill="#FDAD1E"/>
<path d="M7.63795 23.0095C5.22558 23.1213 2.81007 22.8704 0.472681 22.2654C0.169658 22.1865 0.0154672 22.0449 0.000718319 21.7216C-0.0153714 21.3703 0.242063 21.4184 0.448547 21.3689C7.85114 19.6067 14.2857 16.0757 19.795 10.8546C21.1868 9.53556 22.537 8.17552 23.8456 6.77451C24.154 6.44585 24.1768 6.24812 23.8791 5.89809C22.9257 4.77816 22.0401 3.60263 21.227 2.37775C20.7953 1.72712 21.0621 1.06046 21.7553 0.693057C22.0771 0.52205 22.4391 0.432537 22.7421 0.186714C23.194 -0.179349 23.5372 0.0130345 23.729 0.587512C24.1567 1.87808 24.9974 2.92684 25.7965 3.99697C25.9467 4.19737 26.0781 4.16531 26.2135 3.9796C27.018 2.88409 27.9163 1.83266 28.2716 0.493993C28.4057 -0.0404049 28.7181 -0.0657889 29.0359 0.0784986C29.5467 0.310962 30.0415 0.57549 30.5644 0.793257C30.9532 0.954912 31.0753 1.8714 30.8071 2.28957C29.985 3.56233 29.0751 4.77657 28.0839 5.92348C27.8332 6.2174 27.8238 6.41379 28.0906 6.70904C33.1119 12.2735 38.8171 16.8933 45.9086 19.6201C47.7428 20.3255 49.6025 20.9561 51.5293 21.3569C51.7264 21.3983 52.0066 21.3382 51.9999 21.6922C51.9999 22.0075 51.8511 22.1692 51.5427 22.2507C49.085 22.9067 46.5817 23.0977 44.0489 22.9708C45.7919 22.602 47.6034 22.57 49.278 21.8926C49.2351 21.596 49.0273 21.6775 48.9013 21.6508C40.1351 19.7457 32.8451 15.2608 26.6238 8.93748C26.0003 8.30422 26.0043 8.29754 25.3983 8.91477C20.6344 13.7644 15.18 17.5867 8.77228 19.9915C6.79585 20.7186 4.77413 21.317 2.71987 21.7831C4.26716 22.5566 5.98608 22.5686 7.63527 22.8813C7.73181 22.9222 7.7327 22.965 7.63795 23.0095Z" fill="#FDAD1E"/>
<path d="M21.046 32.9667C21.9604 32.6821 22.7891 32.6514 23.5936 32.5819C28.513 32.1624 33.4364 31.8672 38.3759 32.1223C38.9097 32.164 39.4406 32.2358 39.9661 32.3374C40.3965 32.4096 40.5963 32.3 40.6714 31.8191C41.1528 28.7463 41.6489 25.6735 42.4842 22.6622C42.621 22.1695 42.7922 21.6869 42.9964 21.218C43.1103 20.9508 43.2015 20.5272 43.6064 20.6435C43.9832 20.7517 43.9028 21.1391 43.8572 21.4451C43.7061 22.4551 43.5528 23.4651 43.3973 24.4751C43.0473 26.7396 42.7054 29.0041 42.5472 31.2887C42.5018 32.0446 42.5405 32.8031 42.6625 33.5505C42.7765 34.296 42.7966 34.308 42.0229 34.1958C40.0117 33.9019 38.0005 33.6814 35.9705 33.4998C31.6531 33.1123 27.3304 32.8785 22.9929 33.099C22.3868 33.143 21.7687 33.1724 21.046 32.9667Z" fill="#FDAD1E"/>
<path d="M7.63795 23.0095C7.63795 22.9685 7.63795 22.928 7.63795 22.8879C7.97584 22.8385 8.39283 23.0924 8.58725 22.5379C8.68513 22.26 8.96535 22.3402 9.10748 22.57C9.28943 22.8491 9.44347 23.1453 9.56738 23.4544C10.5649 26.1357 11.0825 28.94 11.6563 31.7282C11.7824 32.3388 11.9151 32.948 12.005 33.5639C12.0586 33.9326 12.2168 34.0489 12.5815 34.0061C16.6589 33.5305 20.7457 33.7603 24.8298 33.8725C26.0553 33.9046 27.2861 33.9019 28.5036 34.0929C28.4352 34.4336 28.159 34.304 27.9673 34.3054C26.9268 34.3174 25.8877 34.3054 24.8472 34.3161C24.638 34.3161 24.4061 34.2212 24.217 34.3975C22.0409 34.602 19.8594 34.7396 17.6886 35.0028C15.3194 35.2887 12.9529 35.5959 10.5944 35.9633C10.0997 36.0408 9.92403 36.0515 10.0206 35.4116C10.333 33.3822 9.93207 31.3769 9.60626 29.3822C9.30592 27.5399 8.91038 25.7122 8.62479 23.8672C8.52423 23.2139 8.32713 22.8759 7.63795 23.0095Z" fill="#FDAD1E"/>
<path d="M20.1249 18.8132C20.8074 18.3923 21.526 18.3001 22.2702 18.3215C22.7368 18.3349 23.1927 18.3629 23.6472 18.1518C24.0173 17.9795 24.5093 18.419 24.4155 18.8693C24.1138 20.3282 24.2948 21.7938 24.2894 23.2567C24.2894 23.5239 24.3538 23.8084 24.0883 23.9901C23.7746 24.2052 23.6861 23.8325 23.4809 23.7457C22.6741 23.3995 21.768 23.3591 20.9334 23.6321C20.6652 23.7123 20.6465 23.9541 20.6009 24.1665C20.3649 25.2727 20.6907 26.3281 20.9012 27.3943C20.9455 27.62 21.1144 27.6615 21.3035 27.6521C22.1514 27.6144 23.0009 27.6749 23.8349 27.8325C24.2707 27.9206 24.5147 27.7323 24.5522 27.2767C24.592 27.0669 24.6467 26.8602 24.7158 26.6581C24.9116 27.2363 25.0293 27.8379 25.0658 28.447C25.0912 28.8478 24.8834 28.8639 24.5509 28.7543C23.2168 28.3148 21.8693 28.3936 20.5392 28.7543C19.9828 28.9039 19.846 28.8345 19.8943 28.26C20.0283 26.6341 19.8835 25.0149 19.783 23.3943C19.7495 22.8599 19.9586 22.6782 20.4869 22.7998C21.4107 23.0122 22.3037 22.761 23.1994 22.6101C23.552 22.5499 23.7129 22.2627 23.7156 21.9193C23.7156 21.1418 23.7156 20.3629 23.7022 19.5854C23.7022 19.1485 23.4943 18.9828 23.0318 18.9748C22.061 18.9561 21.093 18.8679 20.1249 18.8132Z" fill="#FDAD1E"/>
<path d="M28.0933 19.5172C28.9715 19.9007 29.292 20.1852 29.5575 20.8078C28.3574 20.6274 28.0678 20.3723 28.0933 19.5172Z" fill="#FDAD1E"/>
<path d="M36.7066 21.9407C37.1478 21.9728 37.605 22.0129 38.034 21.8459C38.3625 21.7123 38.8064 21.5653 38.5945 21.1244C38.4095 20.7397 37.9 20.5566 37.5554 20.8305C36.7509 21.4691 35.8418 21.3809 34.9368 21.4037C34.202 21.4224 34.1082 21.2941 34.1135 20.4832C34.1135 19.8392 34.6002 20.1158 34.8952 20.0917C35.3377 20.057 35.7922 20.1652 36.228 20.0356C36.5149 19.9501 36.7643 19.7684 36.775 19.4331C36.7871 19.1338 36.5256 19.0256 36.3044 18.9321C36.0832 18.8385 35.8941 18.9788 35.7238 19.1472C35.5513 19.3252 35.333 19.4525 35.0927 19.5151C34.8524 19.5778 34.5995 19.5735 34.3616 19.5025C33.9513 19.3769 34.2543 18.916 34.1819 18.6141C34.1805 18.5919 34.1805 18.5695 34.1819 18.5473C34.1283 18.0276 33.7636 17.9688 33.3533 18.0129C32.817 18.0703 33.0288 18.3683 33.1213 18.6809C33.3345 19.3997 33.1213 19.6548 32.3678 19.6441C31.7644 19.6361 31.1611 19.6014 30.559 19.5961C30.3083 19.5961 30.0227 19.5172 29.8109 19.7577C30.0294 19.9568 30.2882 19.8779 30.5228 19.8913C31.2147 19.926 31.9066 19.9407 32.5984 19.9728C32.7968 19.9822 33.0007 19.9862 33.0637 20.252C33.2433 20.9654 32.9108 21.4023 32.1881 21.3716C31.7859 21.3542 31.3836 21.3101 30.9814 21.3155C30.6489 21.3155 30.2936 21.1952 29.9396 21.4023C30.1863 21.6615 30.4692 21.6521 30.7213 21.6695C31.4601 21.7176 31.7698 22.264 32.0768 22.8038C32.1613 22.9521 32.2632 23.2366 31.9253 23.254C31.3689 23.2821 30.7883 23.3435 30.2654 23.1418C29.4515 22.8292 28.7785 22.9708 28.0491 23.7871H28.4795C29.3738 23.7871 29.4676 23.8792 29.481 24.7864C29.4904 25.4544 29.4944 26.1224 29.481 26.7904C29.4801 27.1578 29.3378 27.5109 29.0833 27.7769C28.8289 28.0429 28.4817 28.2014 28.1134 28.2199C27.8546 28.2426 27.4899 28.1932 27.5302 28.5753C27.5623 28.8826 27.8667 29.0268 28.1858 29.0335C28.4561 29.0386 28.7238 28.9796 28.9667 28.8614C29.2096 28.7431 29.4208 28.5691 29.5829 28.3535C29.8645 28.0048 30.126 27.9928 30.5068 28.1264C31.5409 28.4851 32.6137 28.7214 33.7032 28.8305C35.0186 28.9641 36.3339 28.9854 37.6412 28.7396C37.9925 28.6741 38.2915 28.5459 38.2365 28.093C38.1856 27.6788 37.9067 27.5212 37.5433 27.5091C37.2536 27.5099 36.9645 27.5371 36.6798 27.5906C36.106 27.6775 35.5388 27.8138 34.9636 27.8685C33.6027 28.0021 32.2431 28.0021 30.9063 27.6441C30.2882 27.4784 29.9597 27.1872 30.1018 26.4551C30.2359 25.7603 30.4424 25.0669 30.4116 24.3482C30.3941 23.9287 30.5939 23.8138 30.9801 23.8218C31.4936 23.8405 32.0071 23.8218 32.5206 23.8325C32.766 23.8405 33.1227 23.7336 33.1321 24.1478C33.1414 24.5619 32.7834 24.4497 32.5381 24.4738C32.0715 24.5192 31.5781 24.3322 30.9868 24.6768C31.6304 24.8772 32.1586 24.8185 32.6762 24.8372C32.9926 24.8478 33.2474 24.8813 33.25 25.2994C33.25 25.763 32.9403 25.6882 32.6534 25.7082C32.1948 25.739 31.7148 25.5746 31.271 25.8338C31.7667 25.948 32.2706 26.023 32.7781 26.0583C33.1374 26.085 33.3452 26.1919 33.2085 26.5927C33.1186 26.8599 33.0744 27.0816 33.4471 27.1364C33.7783 27.1858 33.9942 27.0269 33.9902 26.7089C33.9821 26.1545 34.2865 26.1264 34.7249 26.1531C35.4584 26.1972 36.1998 26.272 36.9265 26.1184C37.1759 26.0663 37.5178 25.938 37.3797 25.5947C37.2416 25.2513 36.9091 25.1671 36.6007 25.3916C35.9464 25.8672 35.1982 25.7496 34.4702 25.7777C34.1162 25.7911 33.9339 25.6441 33.9419 25.2647C33.9419 24.8492 34.2235 24.8893 34.4957 24.8839C34.9609 24.8759 35.4423 24.9561 35.878 24.7316C36.1046 24.6154 36.3125 24.4337 36.114 24.1505C35.9504 23.918 35.7211 23.8619 35.4892 24.0823C35.2372 24.3082 34.911 24.4341 34.5721 24.4364C34.3549 24.4484 34.0358 24.5766 34.021 24.1692C34.0076 23.8084 34.2811 23.8165 34.5319 23.8031C35.1781 23.7684 35.8271 23.7577 36.4693 23.6882C36.7858 23.6535 37.2979 23.5746 37.2202 23.2019C37.1303 22.7677 36.6128 22.7584 36.2025 22.8252C36.0564 22.8492 35.9343 22.9721 35.7842 23.0269C35.4476 23.1605 35.1138 23.3208 34.6364 23.1605C35.221 22.4751 35.7439 21.8672 36.7066 21.9407ZM33.5464 23.2767C33.4479 23.2972 33.3454 23.2831 33.2562 23.2368C33.167 23.1905 33.0966 23.115 33.057 23.0229C32.9819 22.8893 32.9001 22.7557 32.829 22.6221C32.404 21.8058 32.4053 21.8045 33.3493 21.8485C33.4383 21.8376 33.5284 21.8376 33.6174 21.8485C33.9151 21.9247 34.3227 21.727 34.4957 22.085C34.611 22.3308 33.8574 23.2219 33.5477 23.2767H33.5464Z" fill="#FDAD1E"/>
<path d="M19.1528 21.0723C19.1528 20.8759 19.1957 20.6435 18.898 20.6234C18.6768 20.6087 18.4221 20.5834 18.3845 20.9C18.3282 21.3809 17.9823 21.2807 17.6793 21.262C17.277 21.2393 17.3146 20.9548 17.3078 20.6822C17.2743 19.2914 17.273 19.2914 18.6004 18.9628C18.6873 18.9445 18.7725 18.9191 18.8551 18.8866C18.882 18.8776 18.9064 18.8626 18.9267 18.8428C18.9469 18.823 18.9624 18.799 18.9721 18.7724C18.9818 18.7459 18.9853 18.7175 18.9825 18.6894C18.9796 18.6613 18.9705 18.6342 18.9557 18.6101C18.8445 18.3638 18.6437 18.1685 18.3939 18.0637C18.1445 17.9701 18.107 18.1973 18.0131 18.3309C17.8589 18.5647 17.6109 18.5807 17.3615 18.6047C16.4953 18.6876 15.6292 18.7771 14.763 18.8613C14.4491 18.8703 14.1438 18.9655 13.8807 19.1365C13.7614 19.2246 13.5563 19.3008 13.6769 19.4852C13.7976 19.6695 13.8942 19.4611 14.0068 19.4184C14.3768 19.2848 14.8113 19.0176 15.1411 19.2741C15.4374 19.5025 15.188 19.9421 15.1693 20.2881C15.1677 20.4226 15.1543 20.5567 15.129 20.6889C15.0727 20.928 15.2283 21.2714 14.8716 21.3716C14.6034 21.4451 14.3782 21.3596 14.1489 21.1512C13.7788 20.8145 13.4249 20.9735 13.3967 21.4811C13.2734 23.7016 13.0736 25.9207 13.1607 28.1478C13.1687 28.3698 13.2015 28.5903 13.2586 28.8051C13.3645 29.1965 13.6769 29.2312 14.0081 29.1658C14.3393 29.1003 14.4385 28.9079 14.3031 28.5779C14.1261 28.1491 14.4841 28.1504 14.7335 28.1184C15.935 27.9752 17.1436 27.8998 18.3537 27.8926C18.2276 28.2653 18.0734 28.6421 18.4971 28.8959C18.8712 29.1204 19.1434 28.8238 19.1675 28.1424C19.2373 25.7871 19.2198 23.429 19.1528 21.0723ZM17.2582 22.3883C17.2502 22.0342 17.4728 21.9407 17.7718 21.926C18.0399 21.914 18.3269 21.886 18.4006 22.2467C18.4851 22.6582 18.5347 23.0777 18.642 23.4825C18.8002 24.0716 18.4046 24.2386 17.9876 24.3335C17.4513 24.4564 17.3829 24.0115 17.3038 23.6455C17.266 23.4053 17.2432 23.163 17.2354 22.92H17.2582C17.2596 22.7423 17.2623 22.566 17.2582 22.3883ZM15.6828 20.6662C15.6799 20.5323 15.6866 20.3983 15.7029 20.2654H15.727C15.727 20.0436 15.7418 19.8205 15.727 19.5974C15.7016 19.2995 15.778 19.1338 16.1212 19.1512C16.4243 19.1659 16.6455 19.2113 16.6214 19.5947C16.5894 19.9503 16.5894 20.308 16.6214 20.6635C16.6736 21.1178 16.5141 21.3182 16.0515 21.3248C15.4911 21.3342 15.7083 20.9361 15.6828 20.6662ZM18.6916 26.3268C18.6366 26.6635 18.8256 27.1939 18.2893 27.2473C17.0035 27.3809 15.7136 27.4824 14.4171 27.4196C13.7373 27.3862 13.9464 26.8278 13.8606 26.4697C13.7547 26.0262 14.11 26.0289 14.397 26.0249C15.0432 26.0182 15.6895 26.0249 16.3358 26.0249V25.9487C16.9606 25.9487 17.5841 25.9487 18.2129 25.9487C18.4837 25.9487 18.7519 25.9741 18.6929 26.3268H18.6916ZM18.0641 25.3061C16.793 25.3061 15.5165 25.4263 14.2522 25.234C13.9532 25.1885 13.7158 25.1885 13.7359 24.8104C13.7869 24.0342 13.7842 23.2553 14.0416 22.5018C14.1757 22.1091 14.4332 21.9674 14.8005 22.0209C15.2216 22.0837 14.9923 22.4431 15.0513 22.6715C15.0571 22.7159 15.0571 22.7608 15.0513 22.8051C15.0352 23.6161 15.2403 24.5339 13.8298 24.733C14.94 25.0295 15.6452 24.6074 15.7069 23.7844C15.7231 23.3623 15.7047 22.9396 15.652 22.5205C15.6225 22.1692 15.727 21.9862 16.1186 21.9634C16.4859 21.9474 16.6549 22.0676 16.6549 22.4457C16.6549 22.8906 16.6777 23.3355 16.7139 23.7817C16.7823 24.6234 17.1161 24.8706 17.9447 24.7169C18.1805 24.6601 18.4132 24.5914 18.642 24.5112C18.8203 25.3208 18.8203 25.3088 18.0667 25.3061H18.0641Z" fill="#FDAD1E"/>
</svg>
