<svg width="35" height="34" viewBox="0 0 35 34" fill="none" xmlns="http://www.w3.org/2000/svg">
<path d="M0.507967 14.8597C2.07259 15.2635 3.68953 15.4309 5.30436 15.3563C5.7657 15.2672 5.89762 15.4928 5.96495 15.9288C6.06743 16.5889 6.19105 17.2456 6.31468 17.9024L6.31523 17.9046C6.42201 18.4721 6.52889 19.0399 6.62192 19.6094L6.64657 19.7588C6.65818 19.8288 6.66988 19.8987 6.68158 19.9687L6.68195 19.9709L6.68344 19.9798C6.88567 21.1889 7.08901 22.4045 6.89926 23.6333C6.83465 24.0604 6.95223 24.0533 7.28341 24.0016C8.86215 23.7564 10.4463 23.5513 12.0322 23.3605C12.9799 23.2459 13.9307 23.167 14.8815 23.0882L14.8844 23.0879L14.8866 23.0878C15.392 23.0458 15.8973 23.0039 16.4023 22.9566C16.4053 22.9538 16.4083 22.9511 16.4113 22.9486H19.8685V22.805C19.7155 22.7333 19.5531 22.7377 19.3898 22.7422C19.3501 22.7433 19.3104 22.7444 19.2708 22.7444C19.2658 22.7466 19.2607 22.7487 19.2557 22.7508C18.5701 22.645 17.8782 22.6299 17.1874 22.6149C17.0624 22.6122 16.9374 22.6094 16.8125 22.6062C16.422 22.5955 16.0315 22.5832 15.6409 22.5709C13.2974 22.4971 10.953 22.4233 8.61354 22.6954C8.36942 22.7239 8.26351 22.6463 8.22759 22.4002C8.17564 22.0451 8.10227 21.6933 8.02886 21.3415L7.99425 21.1751C7.95369 20.9787 7.91357 20.7822 7.87344 20.5856C7.53338 18.9201 7.19316 17.2539 6.59592 15.6532C6.51297 15.447 6.40985 15.2493 6.28805 15.063C6.19291 14.9096 6.00533 14.8561 5.93981 15.0416C5.8452 15.3106 5.67189 15.2945 5.49743 15.2783C5.43408 15.2725 5.37062 15.2666 5.31068 15.2743L5.30557 15.272L5.30257 15.2707C4.99006 15.2117 4.6738 15.1687 4.35749 15.1257C3.55649 15.0169 2.75466 14.9079 2.01221 14.5378C3.38733 14.2268 4.74065 13.8274 6.06365 13.3421C10.353 11.7372 14.0041 9.18625 17.193 5.94963C17.5952 5.54127 17.596 5.54213 18.0026 5.95392L18.0133 5.96479C22.1779 10.1849 27.0577 13.1781 32.9257 14.4496C32.9446 14.4535 32.9662 14.4539 32.9886 14.4543C33.0668 14.4557 33.1556 14.4572 33.1779 14.6109C32.441 14.9081 31.6644 15.0192 30.8874 15.1303L30.8846 15.1308C30.4806 15.1886 30.0764 15.2463 29.6776 15.3305C31.373 15.4152 33.0487 15.2877 34.6939 14.8499C34.9003 14.7955 34.9999 14.6876 34.9999 14.4772C35.0035 14.2879 34.8838 14.276 34.7682 14.2645C34.7396 14.2617 34.7111 14.2589 34.6849 14.2534C33.3951 13.9859 32.1503 13.5651 30.9224 13.0943C26.1754 11.2745 22.3565 8.1912 18.9952 4.47756C18.8166 4.28051 18.8229 4.14943 18.9907 3.95328C19.6542 3.18784 20.2633 2.37746 20.8136 1.52804C20.9931 1.24896 20.9115 0.637302 20.6512 0.529408C20.4402 0.441831 20.2362 0.342934 20.0325 0.244208C19.8981 0.179087 19.7639 0.114043 19.628 0.0523914C19.4153 -0.0439038 19.2062 -0.0269616 19.1164 0.329693C18.9127 1.09502 18.4422 1.71969 17.9729 2.34268L17.9696 2.34714C17.8923 2.44967 17.8146 2.55288 17.7387 2.65596C17.648 2.77989 17.5601 2.80128 17.4595 2.66754L17.3995 2.58751L17.3228 2.48567L17.3174 2.47856C16.8275 1.82859 16.3366 1.17724 16.0756 0.392104C15.9472 0.00870395 15.7175 -0.119695 15.415 0.124605C15.2836 0.230905 15.1355 0.293424 14.989 0.355308L14.9865 0.356376L14.9532 0.370469L14.9157 0.386529C14.902 0.392414 14.8884 0.39836 14.8749 0.4044C14.8341 0.422612 14.7938 0.441661 14.7544 0.462537C14.2904 0.707735 14.1118 1.15266 14.4008 1.58689C14.9451 2.40436 15.5379 3.18889 16.1761 3.93634C16.3753 4.16993 16.3601 4.30189 16.1537 4.52125C15.2777 5.45626 14.3739 6.36394 13.4422 7.24429C9.75429 10.7288 5.44706 13.0854 0.491806 14.2614C0.487224 14.2625 0.482611 14.2635 0.477967 14.2645C0.471806 14.2658 0.465583 14.2669 0.459329 14.268C0.44323 14.2709 0.426914 14.2731 0.410691 14.2754C0.295025 14.2918 0.183353 14.3075 0.192053 14.4968C0.201898 14.7126 0.305118 14.8071 0.507967 14.8597Z" fill="#FDAD1E"/>
<path d="M15.7557 21.7635C15.2886 21.8004 14.8053 21.8386 14.2796 22.0017C14.7634 22.139 15.1772 22.1194 15.5829 22.0899C18.4863 21.9428 21.38 22.0989 24.27 22.3574C25.6289 22.4787 26.9752 22.6258 28.3214 22.822C28.8271 22.8951 28.8262 22.8892 28.7549 22.4257L28.7496 22.3913C28.6679 21.8925 28.642 21.3862 28.6724 20.8818C28.7783 19.3571 29.0071 17.8458 29.2414 16.3345C29.3455 15.6604 29.4481 14.9863 29.5493 14.3122L29.5541 14.2805C29.5845 14.0821 29.6207 13.8458 29.3814 13.7773C29.1476 13.7103 29.07 13.9115 29.0041 14.0826C28.9937 14.1098 28.9835 14.1362 28.973 14.1607C28.8364 14.4736 28.7218 14.7957 28.6302 15.1245C28.071 17.1342 27.7389 19.185 27.4167 21.2358C27.3665 21.5567 27.2327 21.6299 26.9446 21.5817C26.5928 21.5139 26.2374 21.4659 25.8802 21.4382C22.5737 21.2678 19.2779 21.4649 15.9849 21.7449L15.9529 21.7476L15.9158 21.7507L15.8679 21.7546L15.7613 21.7631L15.7557 21.7635Z" fill="#FDAD1E"/>
<path d="M1.22333 25.6404C0.87509 25.4549 0.640847 25.4826 0.426326 25.8481C0.457751 25.8678 0.492735 25.8927 0.530444 25.9132C2.81912 27.2257 4.22287 29.1864 4.826 31.7249C4.89241 32.004 5.0091 32.0075 5.22359 31.9237C5.4848 31.8212 5.75406 31.7249 6.02331 31.6357C6.2396 31.5626 6.33923 31.477 6.22164 31.2202C5.13653 28.844 3.57036 26.9021 1.22333 25.6404Z" fill="#FDAD1E"/>
<path d="M13.663 12.5557C14.1199 12.2749 14.601 12.2133 15.0991 12.2276L15.1543 12.2292C15.4474 12.2382 15.7346 12.2469 16.0208 12.1144C16.2686 11.9994 16.5979 12.2927 16.5351 12.5932C16.3894 13.2956 16.4119 14.0004 16.4344 14.7051C16.4431 14.9772 16.4517 15.2493 16.4508 15.5213C16.4508 15.5504 16.4519 15.5799 16.453 15.6093C16.4589 15.7599 16.4648 15.9094 16.3161 16.0108C16.1757 16.1068 16.1027 16.0274 16.0287 15.9469C15.992 15.907 15.9551 15.8668 15.9095 15.8476C15.3694 15.6166 14.7629 15.5896 14.2042 15.7718C14.0434 15.8198 14.0166 15.9543 13.9908 16.0838C13.9878 16.0988 13.9848 16.1137 13.9816 16.1285C13.8506 16.741 13.9784 17.3301 14.1062 17.9193C14.1324 18.0404 14.1587 18.1614 14.1827 18.2827C14.2123 18.4334 14.3254 18.461 14.452 18.4548C15.0196 18.4296 15.5882 18.47 16.1465 18.5751C16.4382 18.634 16.6015 18.5083 16.6267 18.2042C16.6533 18.0642 16.6899 17.9262 16.7362 17.7914C16.8673 18.1772 16.946 18.5787 16.9704 18.9853C16.9875 19.2528 16.8484 19.2635 16.6258 19.1903C15.7327 18.897 14.8307 18.9496 13.9404 19.1903C13.5679 19.2902 13.4763 19.2439 13.5087 18.8604C13.5861 17.924 13.5245 16.9909 13.463 16.0577L13.4472 15.8181C13.4428 15.7498 13.4384 15.6815 13.4342 15.6131C13.4117 15.2565 13.5517 15.1352 13.9054 15.2164C14.4145 15.3331 14.9097 15.2401 15.4034 15.1473C15.4641 15.1359 15.5248 15.1245 15.5855 15.1135C15.6307 15.1053 15.6759 15.0973 15.7211 15.0897C15.9571 15.0496 16.0648 14.8579 16.0666 14.6288C16.0666 14.1098 16.0666 13.59 16.0576 13.0711C16.0576 12.7795 15.9185 12.669 15.6089 12.6636C15.1696 12.6552 14.7312 12.6255 14.2931 12.5959L14.1166 12.5841C14.0609 12.5804 14.0052 12.5767 13.9496 12.5731C13.8541 12.567 13.7585 12.5611 13.663 12.5557Z" fill="#FDAD1E"/>
<path d="M34.0459 28.5124C34.15 28.1477 34.0952 27.9114 33.6662 27.7741C33.4391 28.9796 32.775 29.9247 32.0507 30.8351C31.4168 31.6242 30.712 32.3545 29.9451 33.0169C29.779 33.1613 29.691 33.3066 29.9361 33.411C30.0562 33.4623 30.1396 33.5787 30.2227 33.6945C30.3718 33.9026 30.5198 34.109 30.8767 33.9344C30.9348 33.9065 30.9768 33.8471 31.0177 33.7893C31.0304 33.7712 31.0431 33.7532 31.0562 33.7364C31.1235 33.649 31.1913 33.5621 31.2592 33.4752C31.4385 33.2456 31.6177 33.0162 31.785 32.7788C32.7193 31.4547 33.5971 30.095 34.0459 28.5124Z" fill="#FDAD1E"/>
<path d="M3.04547 28.591C3.01061 28.6456 2.97603 28.6999 2.9385 28.7522C2.32745 29.628 1.85187 30.5897 1.52757 31.6054C1.43782 31.8809 1.33549 32.0129 1.02856 31.864C0.813294 31.762 0.58676 31.6855 0.353602 31.6357C-0.00540912 31.5564 -0.0888769 31.4182 0.0933219 31.0651C0.656079 29.9782 1.32475 28.9715 2.21869 28.1227C2.24234 28.1002 2.26491 28.0711 2.28801 28.0412C2.36655 27.9398 2.4515 27.83 2.60819 27.9444C2.82048 28.0902 2.98572 28.2939 3.08389 28.5311C3.07172 28.5499 3.05974 28.5686 3.04779 28.5874L3.04547 28.591Z" fill="#FDAD1E"/>
<path d="M12.7897 29.9461C12.6953 29.5415 12.6573 29.126 12.6767 28.7112C12.6767 28.6536 12.6771 28.5961 12.6776 28.5387C12.679 28.3736 12.6804 28.2087 12.6704 28.0434C12.6639 27.9531 12.6262 27.8679 12.5638 27.8021C12.5013 27.7363 12.4178 27.6939 12.3275 27.6822C12.1959 27.6574 12.1646 27.7815 12.1369 27.8916L12.1365 27.8932C12.1296 27.9206 12.1228 27.9472 12.1148 27.9702C11.7227 29.0838 11.6702 30.2876 11.964 31.4307C12.008 31.6081 12.0511 31.7704 12.315 31.7133C12.875 31.5938 13.4216 31.4592 13.9305 31.1917C14.1504 31.0776 14.2052 30.9474 14.1306 30.6933C14.03 30.3498 13.7967 30.41 13.5894 30.4635L13.5625 30.4704C13.0841 30.5925 12.8795 30.3839 12.7897 29.9461Z" fill="#FDAD1E"/>
<path d="M26.1467 28.7005C26.1207 29.1594 26.1699 29.6196 26.2922 30.0629C26.3963 30.4436 26.5964 30.5649 26.9734 30.4775C26.9955 30.4724 27.0182 30.4666 27.0411 30.4608C27.1902 30.4228 27.3532 30.3813 27.4885 30.4917C27.5408 30.5368 27.5812 30.5939 27.6061 30.6581C27.631 30.7222 27.6398 30.7914 27.6315 30.8597C27.6233 30.928 27.5983 30.9932 27.5589 31.0497C27.5194 31.1061 27.4666 31.1521 27.4051 31.1837C26.915 31.4467 26.3837 31.5867 25.8407 31.7017C25.584 31.7561 25.4861 31.6598 25.435 31.4387C25.1604 30.2555 25.181 29.0857 25.6028 27.9372C25.6063 27.9277 25.6095 27.9173 25.6125 27.9062C25.6158 27.8939 25.619 27.8808 25.6222 27.8675C25.6477 27.7624 25.6784 27.636 25.8326 27.6912C25.9753 27.742 26.1387 27.8374 26.1449 28.0326C26.15 28.1894 26.1488 28.3452 26.1477 28.5007C26.1472 28.5673 26.1467 28.6339 26.1467 28.7005Z" fill="#FDAD1E"/>
<path d="M27.9669 27.8909C27.8242 28.3994 27.7523 28.9251 27.7533 29.453C27.7793 30.0522 27.8395 30.6701 28.0522 31.2666C28.057 31.28 28.0616 31.2935 28.0661 31.3072C28.0705 31.3204 28.0747 31.3336 28.0789 31.3468C28.1386 31.5329 28.1939 31.7056 28.4866 31.5341C28.6239 31.4538 28.6724 31.5733 28.6885 31.6812C28.7119 31.8417 28.7227 32.0049 28.7361 32.1671L28.7365 32.1712C28.7453 32.2762 28.7548 32.3886 28.8806 32.4123C29.0332 32.4426 29.0835 32.3205 29.1229 32.2055C29.2504 31.8355 29.2639 31.4521 29.2639 31.0642C29.2621 30.8359 29.1732 30.7325 28.9425 30.761C28.676 30.794 28.6078 30.6469 28.6078 30.4178C28.614 29.8525 28.6598 29.2925 28.8393 28.7504C29.0803 28.0294 29.0774 28.028 28.4357 27.7083L28.3959 27.6885C28.1186 27.5503 28.0378 27.6385 27.9669 27.8909Z" fill="#FDAD1E"/>
<path d="M8.11094 31.7623C7.63976 31.7944 7.26997 31.5894 6.96391 31.2612C6.65784 30.9331 6.64979 30.5283 6.91366 30.1645C7.34087 29.5752 8.37481 29.2203 9.0785 29.4049C9.26874 29.4548 9.35401 29.527 9.34775 29.7339C9.33856 29.9456 9.20565 29.9494 9.07001 29.9532L9.06431 29.9533L9.03989 29.9541C8.76933 29.9593 8.504 30.0291 8.26623 30.1574C8.02567 30.2903 7.85784 30.4864 7.95567 30.7726C8.05351 31.0589 8.29673 31.2265 8.61896 31.1703C8.72178 31.1521 8.81945 31.1089 8.91757 31.0655C8.98302 31.0365 9.04865 31.0075 9.11617 30.9857C9.1462 30.976 9.17707 30.9504 9.20837 30.9244C9.28927 30.8572 9.37289 30.7877 9.45184 30.9857L9.46156 31.0094C9.53199 31.1806 9.60487 31.3578 9.36209 31.4779C8.97079 31.6732 8.54357 31.7276 8.11094 31.7623Z" fill="#FDAD1E"/>
<path d="M20.4851 31.3219C20.7858 31.6134 21.1421 31.7784 21.6726 31.7561C22.0037 31.7285 22.4319 31.6776 22.8331 31.4779C23.0763 31.3562 23.005 31.1734 22.9325 30.9877L22.9318 30.9857C22.8529 30.7852 22.7692 30.8553 22.688 30.9234C22.6787 30.9312 22.6694 30.939 22.6601 30.9464C22.6549 30.9505 22.6496 30.9546 22.6444 30.9584C22.6411 30.9608 22.6377 30.9632 22.6344 30.9654C22.6317 30.9672 22.629 30.969 22.6263 30.9707C22.6158 30.9771 22.6055 30.9823 22.5952 30.9857C22.5776 30.9915 22.5602 30.9977 22.5428 31.0043C22.4952 31.0224 22.4483 31.0431 22.4015 31.0638C22.3014 31.108 22.2017 31.152 22.0971 31.1694C21.9567 31.2018 21.8092 31.1792 21.6851 31.1063C21.5611 31.0334 21.4701 30.9158 21.4311 30.778C21.3261 30.4837 21.4976 30.3018 21.7345 30.1636C21.9532 30.0372 22.1997 29.9658 22.4525 29.9559C22.4623 29.9554 22.4722 29.9551 22.4821 29.9548L22.5111 29.9542C22.6646 29.9511 22.8115 29.9482 22.8115 29.6982C22.8124 29.4404 22.6322 29.4122 22.4622 29.3855L22.4606 29.3853C21.642 29.2551 20.9536 29.5315 20.4151 30.1298C20.0732 30.506 20.1198 30.9652 20.4851 31.3219Z" fill="#FDAD1E"/>
<path d="M22.352 28.408C22.513 28.2837 22.6988 28.2142 22.8832 28.1452C22.9752 28.1107 23.0672 28.0763 23.1553 28.0353C23.3545 27.9462 23.4981 28.0719 23.6274 28.1976C23.929 28.4927 24.0447 28.8744 24.104 29.2747C24.1767 29.7722 24.2404 30.2715 24.3041 30.7708C24.3499 31.1275 24.4486 31.4636 24.7744 31.6973C23.999 31.9273 23.4999 31.6304 23.3617 30.8761C23.3304 30.7051 23.3021 30.5334 23.2737 30.3615L23.2726 30.3545L23.2715 30.3478C23.2452 30.1882 23.2188 30.0286 23.1903 29.8694C23.0511 29.0874 22.9425 28.8966 22.352 28.408Z" fill="#FDAD1E"/>
<path d="M9.90419 30.918C10.0388 31.6268 10.5136 31.9068 11.3035 31.7017C10.9191 31.4003 10.8622 30.9894 10.805 30.5769C10.7976 30.5232 10.7901 30.4695 10.782 30.416C10.7594 30.2583 10.7444 30.0989 10.7293 29.9393C10.6942 29.5668 10.6591 29.1936 10.5271 28.8396C10.1618 27.8615 9.80367 27.8088 8.92589 28.4374C9.46172 28.8877 9.58738 29.1088 9.71481 29.8221C9.74296 29.9787 9.76909 30.1357 9.79522 30.2927C9.82998 30.5015 9.86475 30.7103 9.90419 30.918Z" fill="#FDAD1E"/>
<path d="M14.9791 27.7243C15.1667 27.8171 15.3566 27.911 15.5425 28.0112C15.6779 28.0856 15.6262 28.1785 15.5782 28.2647C15.5686 28.2819 15.5592 28.2988 15.5514 28.3153C15.1305 29.2069 15.0695 30.1422 15.2059 31.0945C15.2481 31.387 15.1431 31.5073 14.9034 31.5813C14.6395 31.6631 14.6156 31.4858 14.5959 31.3397C14.5932 31.3197 14.5906 31.3 14.5874 31.2819C14.5845 31.2651 14.5811 31.2493 14.5767 31.2354C14.2262 30.1742 14.195 29.0345 14.487 27.956C14.5659 27.6555 14.6144 27.5984 14.7526 27.6118C14.8275 27.6494 14.9031 27.6868 14.9791 27.7243Z" fill="#FDAD1E"/>
<path d="M31.1998 30.4935C31.2885 30.5541 31.3805 30.6098 31.4754 30.6603C31.5313 30.6526 31.5844 30.6315 31.6303 30.5989C31.6762 30.5663 31.7134 30.523 31.7388 30.473C31.7642 30.4229 31.7768 30.3674 31.7758 30.3113C31.7748 30.2553 31.7601 30.2003 31.7329 30.1512C31.4417 29.6358 31.1899 29.0993 30.9799 28.5462L30.9785 28.5426L30.9781 28.5413C30.7987 28.0765 30.7091 27.8443 30.5625 27.7997C30.4161 27.7552 30.213 27.8975 29.8074 28.1816L29.7961 28.1896C29.6534 28.2885 29.5843 28.3679 29.674 28.5462C30.0707 29.2845 30.5159 29.9817 31.1998 30.4935Z" fill="#FDAD1E"/>
<path d="M18.3661 28.3313C17.666 29.2756 17.85 30.1984 18.4558 31.0954C18.5707 31.2657 18.5249 31.3326 18.3661 31.4378C17.6732 31.9103 17.3411 31.7944 17.167 30.9465C16.966 29.971 17.3465 29.1401 17.8976 28.3679C18.0214 28.2021 18.1758 28.2261 18.3661 28.3313Z" fill="#FDAD1E"/>
<path d="M19.4207 28.3492C19.6657 28.458 20.2249 28.063 20.1961 27.8044C20.1695 27.7078 20.0875 27.6784 20.0087 27.6502L19.9987 27.6466C18.8274 27.2248 17.6866 27.2213 16.6006 27.9007C16.5825 27.9122 16.5617 27.923 16.5403 27.9343C16.435 27.9892 16.315 28.0519 16.4328 28.2297C16.5324 28.3804 16.6401 28.3474 16.7775 28.2841C17.6678 27.8739 18.5483 27.9595 19.4207 28.3492Z" fill="#FDAD1E"/>
<path d="M5.77647 25.7108C5.80285 25.865 5.7213 25.9132 5.6465 25.9574C5.63477 25.9644 5.62319 25.9712 5.61223 25.9783C5.09907 26.331 4.62387 26.7353 4.19414 27.1847C3.95544 27.4271 3.8429 27.294 3.73058 27.161C3.69043 27.1136 3.6503 27.0661 3.60445 27.0358C3.36841 26.8807 3.49494 26.7514 3.64665 26.6274C4.18451 26.2093 4.7517 25.8297 5.34387 25.4915C5.56384 25.3595 5.62724 25.4794 5.68585 25.5902C5.71235 25.6404 5.73789 25.6886 5.77647 25.7108Z" fill="#FDAD1E"/>
<path d="M20.9025 28.9599C21.4006 28.5263 21.9722 28.1839 22.5907 27.9488C21.8431 27.6243 20.8316 27.8204 20.3272 28.3135C20.1091 28.5248 20.2518 28.663 20.3909 28.7816C20.4254 28.811 20.4556 28.8528 20.4861 28.8951C20.5787 29.0233 20.6744 29.1557 20.9025 28.9599Z" fill="#FDAD1E"/>
<path d="M9.10091 27.9506C8.49016 28.1924 7.92487 28.5349 7.4288 28.9635C7.18558 29.1713 7.06979 28.9885 6.98003 28.8369C6.95434 28.7935 6.90858 28.7558 6.86282 28.7182C6.7488 28.6244 6.63458 28.5304 6.82926 28.3465C7.32199 27.8802 8.44571 27.5298 9.10091 27.9506Z" fill="#FDAD1E"/>
<path d="M13.8183 27.8927C13.9834 27.5904 14.04 27.2578 14.0947 26.9253C14.1277 26.6775 13.9731 26.6577 13.823 26.6385C13.7851 26.6336 13.7475 26.6288 13.7133 26.6203C13.4895 26.5668 13.4901 26.712 13.4906 26.8599L13.4907 26.8824C13.4889 27.1901 13.4808 27.4986 13.4719 27.8062L13.4718 27.8101C13.4682 27.9159 13.4644 28.0268 13.5894 28.0594C13.711 28.0911 13.7655 27.9903 13.8126 27.9033L13.8183 27.8927Z" fill="#FDAD1E"/>
<path d="M18.997 13.0256C19.5849 13.2815 19.7994 13.4714 19.9771 13.8869C19.1739 13.7666 18.98 13.5963 18.997 13.0256Z" fill="#FDAD1E"/>
<path fill-rule="evenodd" clip-rule="evenodd" d="M24.7628 14.643L24.7914 14.6451C25.0778 14.666 25.3734 14.6876 25.6513 14.5797L25.6887 14.5647C25.903 14.479 26.1604 14.3761 26.0265 14.0982C25.9026 13.8415 25.5616 13.7193 25.3309 13.9021C24.8636 14.2719 24.3436 14.2765 23.8183 14.2812C23.7867 14.2814 23.7551 14.2817 23.7235 14.2821C23.675 14.2826 23.6265 14.2834 23.578 14.2846C23.0862 14.2971 23.0233 14.2115 23.0269 13.6703C23.0269 13.3449 23.2136 13.3716 23.39 13.3969C23.4466 13.405 23.5022 13.4129 23.5502 13.409C23.6614 13.4003 23.7737 13.405 23.8861 13.4098C24.073 13.4177 24.2602 13.4256 24.4423 13.3716C24.6344 13.3145 24.8013 13.1932 24.8085 12.9694C24.8165 12.7712 24.6443 12.6986 24.4969 12.6365L24.4935 12.6351C24.3454 12.5727 24.2189 12.6663 24.1049 12.7786C23.9894 12.8974 23.8432 12.9824 23.6824 13.0242C23.5216 13.0661 23.3523 13.0631 23.193 13.0158C23.0135 12.961 23.0379 12.8108 23.0629 12.657C23.0761 12.5753 23.0895 12.4927 23.0727 12.4229C23.0718 12.408 23.0718 12.3931 23.0727 12.3783C23.0368 12.0314 22.7927 11.9922 22.5181 12.0216C22.2159 12.0539 22.2685 12.1998 22.3296 12.3696C22.3359 12.3872 22.3424 12.405 22.3485 12.423C22.3535 12.4377 22.3584 12.4526 22.3628 12.4674C22.5055 12.9472 22.3628 13.1174 21.8584 13.1103C21.7546 13.1089 21.6508 13.1064 21.547 13.1033C21.4584 13.1006 21.3698 13.0976 21.2812 13.0946C21.07 13.0873 20.8585 13.0801 20.6476 13.0782C20.6147 13.0782 20.581 13.0762 20.5468 13.0742C20.4067 13.0658 20.2608 13.0571 20.1468 13.1861C20.2568 13.286 20.382 13.281 20.5041 13.2762C20.5444 13.2746 20.5844 13.2731 20.6234 13.2753C20.8714 13.2877 21.1195 13.2963 21.3675 13.3048C21.5826 13.3123 21.7977 13.3197 22.0127 13.3297L22.0209 13.33C22.1511 13.3361 22.2829 13.3422 22.3242 13.516C22.4445 13.9921 22.2219 14.2837 21.7381 14.2632C21.6437 14.2591 21.5492 14.2529 21.4548 14.2466C21.28 14.235 21.1051 14.2234 20.9303 14.2258C20.8713 14.2258 20.8112 14.2201 20.7503 14.2144C20.5817 14.1986 20.4071 14.1822 20.2329 14.2837C20.3823 14.4402 20.5516 14.45 20.7074 14.459C20.7238 14.46 20.7401 14.4609 20.7562 14.462C21.25 14.4941 21.4575 14.8577 21.6627 15.2174L21.6636 15.219C21.7202 15.318 21.7884 15.5079 21.5622 15.5195C21.5224 15.5215 21.4825 15.5238 21.4424 15.526L21.439 15.5262C21.1049 15.5451 20.7627 15.5645 20.451 15.4446C19.9062 15.236 19.4557 15.3305 18.9674 15.8753H19.2555C19.8542 15.8753 19.917 15.9368 19.926 16.5422C19.9323 16.988 19.935 17.4338 19.926 17.8796C19.9254 18.1249 19.8301 18.3605 19.6598 18.538C19.4894 18.7155 19.257 18.8214 19.0105 18.8337C19.0014 18.8345 18.9921 18.8351 18.9827 18.8357C18.9659 18.8368 18.9486 18.8375 18.9312 18.8383C18.7718 18.8454 18.5971 18.8531 18.6201 19.0709C18.6416 19.2759 18.8454 19.3722 19.059 19.3767C19.2399 19.3801 19.4191 19.3407 19.5817 19.2618C19.7443 19.1829 19.8857 19.0667 19.9942 18.9228C20.1827 18.6901 20.3577 18.6821 20.6126 18.7713C21.3048 19.0107 22.023 19.1684 22.7523 19.2412C23.6328 19.3303 24.5133 19.3446 25.3883 19.1805C25.6235 19.1368 25.8236 19.0512 25.7869 18.749C25.7527 18.4726 25.566 18.3674 25.3228 18.3593C25.1289 18.3598 24.9354 18.378 24.7448 18.4137C24.5996 18.4356 24.455 18.4623 24.3106 18.4889C24.0733 18.5326 23.8351 18.5765 23.596 18.5992C22.685 18.6884 21.7749 18.6884 20.8801 18.4494C20.4663 18.3388 20.2464 18.1445 20.3415 17.6558C20.3622 17.549 20.3855 17.4423 20.4088 17.3353C20.4865 16.9783 20.5648 16.6187 20.5489 16.2498C20.5372 15.9698 20.671 15.8931 20.9294 15.8984C21.1219 15.9054 21.3144 15.9046 21.5069 15.9038C21.5916 15.9034 21.6763 15.903 21.761 15.9033C21.8276 15.9036 21.8941 15.9042 21.9607 15.9056C21.99 15.9065 22.0217 15.9051 22.054 15.9035C22.2027 15.8965 22.3648 15.8889 22.37 16.116C22.375 16.3357 22.2246 16.3335 22.0803 16.3314C22.043 16.3308 22.0061 16.3303 21.9724 16.3336C21.8784 16.3427 21.7828 16.3378 21.6842 16.3327C21.4553 16.3209 21.2106 16.3083 20.9339 16.4691C21.2655 16.572 21.5514 16.5725 21.8234 16.5729C21.9048 16.5731 21.985 16.5732 22.0648 16.5761C22.2766 16.5832 22.4472 16.6055 22.4489 16.8846C22.4489 17.1479 22.2988 17.151 22.1356 17.1543C22.1071 17.1548 22.0781 17.1554 22.0495 17.1574C21.9528 17.1639 21.8547 17.1574 21.7564 17.151C21.5426 17.1369 21.3277 17.1227 21.1242 17.2412C21.456 17.3174 21.7933 17.3675 22.133 17.391C22.3735 17.4089 22.5127 17.4802 22.4211 17.7477C22.361 17.926 22.3314 18.074 22.5809 18.1106C22.8026 18.1436 22.9471 18.0375 22.9444 17.8253C22.939 17.4552 23.1427 17.4365 23.4362 17.4543C23.4937 17.4578 23.5514 17.4615 23.609 17.4653C24.0434 17.4934 24.4805 17.5217 24.9099 17.4312C25.0769 17.3964 25.3058 17.3108 25.2133 17.0816C25.1209 16.8525 24.8983 16.7963 24.6919 16.9461C24.3402 17.201 23.948 17.2006 23.5549 17.2003C23.5106 17.2003 23.4663 17.2002 23.422 17.2005C23.3699 17.2009 23.3177 17.2018 23.2657 17.2038C23.0287 17.2127 22.9067 17.1146 22.912 16.8614C22.912 16.6092 23.068 16.6085 23.2332 16.6078C23.2497 16.6077 23.2662 16.6076 23.2827 16.6073C23.3526 16.6061 23.423 16.6079 23.4935 16.6096C23.7372 16.6157 23.9818 16.6218 24.2081 16.5056C24.3598 16.4281 24.4989 16.3068 24.366 16.1178C24.2566 15.9626 24.1031 15.9252 23.9478 16.0723C23.7792 16.223 23.5607 16.3071 23.3339 16.3086C23.3183 16.3095 23.302 16.3112 23.2852 16.3133C23.2751 16.3146 23.2648 16.316 23.2544 16.3174C23.1212 16.3355 22.9732 16.3556 22.965 16.1303C22.9565 15.9029 23.1194 15.895 23.2789 15.8874L23.307 15.886C23.4326 15.8792 23.5584 15.8738 23.6841 15.8685C23.9913 15.8553 24.299 15.8422 24.6039 15.8093C24.8157 15.7861 25.1586 15.7335 25.1065 15.4847C25.0464 15.1949 24.6999 15.1887 24.4253 15.2333C24.3694 15.2425 24.3188 15.2731 24.2669 15.3046C24.228 15.3282 24.1884 15.3523 24.1453 15.3679C24.1315 15.3734 24.1177 15.3789 24.1039 15.3845L24.099 15.3864C23.8889 15.4707 23.6746 15.5568 23.377 15.4571C23.7683 14.9997 24.1183 14.594 24.7628 14.643ZM22.6473 15.5347C22.5814 15.5483 22.5128 15.5389 22.4531 15.508C22.3933 15.4771 22.3462 15.4267 22.3197 15.3653C22.3 15.3303 22.2796 15.2954 22.2593 15.2604L22.2545 15.2524C22.2369 15.2221 22.2193 15.1918 22.2022 15.1615C22.1902 15.1403 22.1785 15.119 22.1671 15.0978C21.8826 14.553 21.8835 14.5521 22.5154 14.5815C22.575 14.5742 22.6353 14.5742 22.6949 14.5815C22.7607 14.5983 22.8345 14.5951 22.9081 14.592C23.0572 14.5856 23.2052 14.5793 23.2827 14.7393C23.3599 14.9034 22.8546 15.4981 22.6473 15.5347Z" fill="#FDAD1E"/>
<path fill-rule="evenodd" clip-rule="evenodd" d="M13.013 14.019C13.0127 14.034 13.0123 14.0489 13.0123 14.0635C13.0572 15.6363 13.0689 17.21 13.0222 18.782C13.006 19.2367 12.8238 19.4346 12.5734 19.2849C12.3033 19.1235 12.3841 18.8878 12.4653 18.6508L12.4774 18.6152C11.6674 18.6201 10.8583 18.6704 10.0541 18.7659C10.0399 18.7678 10.0251 18.7694 10.0101 18.7711C9.84893 18.7893 9.6576 18.8108 9.76596 19.0727C9.85661 19.2929 9.7902 19.4213 9.5685 19.465C9.34682 19.5087 9.13769 19.4855 9.06679 19.2242C9.02859 19.0809 9.00661 18.9337 9.00128 18.7855C8.95518 17.6117 9.02893 16.4412 9.10261 15.2709C9.12224 14.9594 9.14187 14.6479 9.15924 14.3363C9.17809 13.9975 9.41503 13.8914 9.66274 14.1161C9.81624 14.2552 9.96701 14.3122 10.1465 14.2632C10.3154 14.2159 10.3127 14.0874 10.31 13.9597C10.3089 13.9069 10.3078 13.8543 10.3188 13.8076C10.3357 13.7194 10.3448 13.6299 10.3458 13.5401C10.3495 13.4717 10.3667 13.3979 10.384 13.3239C10.4252 13.1478 10.4665 12.9707 10.3269 12.8633C10.1463 12.7233 9.91896 12.8171 9.70661 12.9047C9.6593 12.9242 9.61274 12.9434 9.5676 12.9596C9.54478 12.9683 9.52295 12.987 9.50138 13.0056C9.45162 13.0483 9.40314 13.09 9.34682 13.0042C9.28014 12.9026 9.36209 12.8503 9.43763 12.802C9.4536 12.7918 9.4693 12.7818 9.48323 12.7715C9.65933 12.6574 9.8637 12.5939 10.0738 12.5878C10.3318 12.5628 10.5899 12.5371 10.8479 12.5114C11.1697 12.4794 11.4914 12.4473 11.8132 12.4166L11.83 12.415C11.9913 12.3997 12.1497 12.3846 12.2494 12.2338C12.2631 12.2145 12.2749 12.1922 12.2868 12.1698C12.3298 12.089 12.3736 12.0066 12.5043 12.0555C12.6715 12.1255 12.8059 12.2558 12.8804 12.4202C12.8903 12.4363 12.8964 12.4544 12.8983 12.4731C12.9002 12.4919 12.8978 12.5108 12.8914 12.5285C12.8849 12.5463 12.8745 12.5623 12.861 12.5755C12.8474 12.5887 12.831 12.5987 12.8131 12.6048C12.785 12.6157 12.7566 12.6255 12.7278 12.634C12.6997 12.6424 12.6712 12.6496 12.6425 12.6556C11.7549 12.8747 11.7549 12.8749 11.7772 13.8003L11.7773 13.8031C11.7777 13.8197 11.7779 13.8363 11.778 13.8529C11.7797 14.0182 11.7812 14.1763 12.0259 14.1901C12.0508 14.1916 12.0762 14.194 12.1015 14.1963C12.2827 14.2131 12.4649 14.23 12.498 13.9485C12.5226 13.7424 12.6853 13.7534 12.8306 13.7631L12.8418 13.7639C13.0189 13.7758 13.0159 13.8996 13.013 14.019ZM12.0879 14.6332C11.8877 14.643 11.7387 14.7054 11.7441 14.9417C11.7468 15.0603 11.745 15.178 11.7441 15.2966H11.7288C11.734 15.4588 11.7493 15.6205 11.7746 15.7807L11.7817 15.8137C11.8323 16.0507 11.8894 16.3183 12.2324 16.2399C12.5115 16.1766 12.7763 16.0652 12.6704 15.672C12.6255 15.5033 12.5958 15.3308 12.5659 15.1582C12.548 15.0543 12.5301 14.9504 12.5088 14.8472C12.4613 14.6157 12.2819 14.6241 12.1086 14.6323L12.0879 14.6332ZM10.703 13.5249C10.6921 13.6137 10.6876 13.703 10.6895 13.7924C10.6936 13.8352 10.6884 13.8829 10.6833 13.9306C10.6669 14.0835 10.6504 14.2367 10.9363 14.232C11.246 14.2275 11.3528 14.0938 11.3178 13.7906C11.2964 13.5533 11.2964 13.3146 11.3178 13.0773C11.334 12.8214 11.1858 12.7911 10.983 12.7813C10.7532 12.7697 10.7021 12.8803 10.7192 13.0791C10.7257 13.1784 10.7235 13.2778 10.7213 13.3768C10.7202 13.4263 10.7192 13.4756 10.7192 13.5249H10.703ZM11.574 16.9014C11.8106 16.8952 12.0472 16.889 12.2835 16.889H12.2853C12.5315 16.8899 12.6576 16.8923 12.7082 16.8316C12.7613 16.768 12.7315 16.6351 12.6704 16.3585C12.5172 16.4121 12.3614 16.4579 12.2036 16.4958C11.649 16.5984 11.4255 16.4334 11.3797 15.8717C11.3555 15.5739 11.3402 15.277 11.3402 14.9801C11.3402 14.7277 11.2271 14.6475 10.9812 14.6582C10.7192 14.6733 10.6491 14.7955 10.6689 15.03C10.7042 15.3097 10.7165 15.5918 10.7057 15.8735C10.6644 16.4227 10.1923 16.7045 9.44915 16.5065C10.2797 16.3897 10.2734 15.9017 10.2672 15.4175C10.2663 15.3513 10.2655 15.2851 10.2668 15.2199C10.2707 15.1903 10.2707 15.1604 10.2668 15.1308C10.2547 15.0839 10.2607 15.0288 10.2668 14.9738C10.2805 14.8496 10.2942 14.7256 10.0989 14.6965C9.85302 14.6609 9.6807 14.7554 9.59094 15.0175C9.44803 15.4346 9.42487 15.8633 9.40165 16.293C9.39689 16.3814 9.39212 16.4698 9.3863 16.5582C9.37395 16.7901 9.50704 16.8089 9.68398 16.834C9.69961 16.8362 9.71562 16.8384 9.73187 16.8409C10.3431 16.9336 10.9587 16.9175 11.574 16.9014Z" fill="#FDAD1E"/>
</svg>
