<svg width="74" height="15" viewBox="0 0 74 15" fill="none" xmlns="http://www.w3.org/2000/svg">
<path d="M0.916862 4.69616L2.67664 9.03022L4.43637 4.69616H5.35689V10.008H4.6471V7.93944L4.71366 5.7067L2.9465 10.008H2.40307L0.639622 5.71765L0.709848 7.93944V10.008H0V4.69616H0.916862ZM8.97253 10.008C8.93309 9.93012 8.90103 9.79152 8.8764 9.59205C8.55845 9.91797 8.17892 10.0809 7.73777 10.0809C7.34338 10.0809 7.01932 9.9715 6.76544 9.7526C6.51405 9.53124 6.38835 9.25158 6.38835 8.91351C6.38835 8.50248 6.54611 8.18384 6.86157 7.95766C7.17952 7.72902 7.62561 7.61473 8.19989 7.61473H8.86531V7.30463C8.86531 7.06871 8.79386 6.88144 8.65091 6.74279C8.50797 6.60173 8.29724 6.53123 8.01872 6.53123C7.77471 6.53123 7.57014 6.59199 7.40501 6.71362C7.23987 6.83525 7.15733 6.98238 7.15733 7.15503H6.46968C6.46968 6.95803 6.53995 6.76835 6.6804 6.58591C6.82335 6.40106 7.01561 6.25518 7.25712 6.14816C7.50114 6.04115 7.76855 5.98762 8.05938 5.98762C8.52028 5.98762 8.88134 6.10191 9.1426 6.33055C9.40386 6.55674 9.53938 6.86929 9.54925 7.26812V9.08495C9.54925 9.44733 9.59607 9.73558 9.68975 9.94961V10.008H8.97253ZM7.83756 9.49358C8.052 9.49358 8.2553 9.43884 8.44756 9.32936C8.63982 9.21994 8.77905 9.07767 8.86531 8.90256V8.09265H8.32924C7.49126 8.09265 7.0723 8.33465 7.0723 8.81865C7.0723 9.03022 7.14375 9.19564 7.28669 9.3148C7.42969 9.43397 7.61329 9.49358 7.83756 9.49358ZM11.2683 6.06058L11.2905 6.55674C11.5961 6.17734 11.9954 5.98762 12.4883 5.98762C13.3337 5.98762 13.7601 6.45826 13.7675 7.39949V10.008H13.0835V7.39583C13.0811 7.11129 13.0145 6.90088 12.8839 6.76469C12.7557 6.6285 12.5549 6.5604 12.2813 6.5604C12.0595 6.5604 11.8648 6.61875 11.6972 6.73551C11.5296 6.85227 11.399 7.00548 11.3053 7.19515V10.008H10.6214V6.06058H11.2683ZM17.2685 10.008C17.2291 9.93012 17.197 9.79152 17.1724 9.59205C16.8544 9.91797 16.4749 10.0809 16.0337 10.0809C15.6393 10.0809 15.3152 9.9715 15.0614 9.7526C14.81 9.53124 14.6843 9.25158 14.6843 8.91351C14.6843 8.50248 14.8421 8.18384 15.1575 7.95766C15.4755 7.72902 15.9216 7.61473 16.4958 7.61473H17.1613V7.30463C17.1613 7.06871 17.0898 6.88144 16.9468 6.74279C16.8039 6.60173 16.5931 6.53123 16.3147 6.53123C16.0707 6.53123 15.8661 6.59199 15.701 6.71362C15.5358 6.83525 15.4533 6.98238 15.4533 7.15503H14.7656C14.7656 6.95803 14.8359 6.76835 14.9764 6.58591C15.1193 6.40106 15.3116 6.25518 15.5531 6.14816C15.7971 6.04115 16.0645 5.98762 16.3553 5.98762C16.8162 5.98762 17.1773 6.10191 17.4386 6.33055C17.6998 6.55674 17.8353 6.86929 17.8452 7.26812V9.08495C17.8452 9.44733 17.892 9.73558 17.9857 9.94961V10.008H17.2685ZM16.1335 9.49358C16.3479 9.49358 16.5513 9.43884 16.7435 9.32936C16.9357 9.21994 17.075 9.07767 17.1613 8.90256V8.09265H16.6252C15.7872 8.09265 15.3683 8.33465 15.3683 8.81865C15.3683 9.03022 15.4397 9.19564 15.5827 9.3148C15.7256 9.43397 15.9093 9.49358 16.1335 9.49358ZM19.9414 4.69616L21.7011 9.03022L23.4611 4.69616H24.3815V10.008H23.6718V7.93944L23.7382 5.7067L21.971 10.008H21.4276L19.6641 5.71765L19.7344 7.93944V10.008H19.0246V4.69616H19.9414ZM27.9968 10.008C27.9575 9.93012 27.9257 9.79152 27.9007 9.59205C27.5828 9.91797 27.2033 10.0809 26.7622 10.0809C26.3678 10.0809 26.044 9.9715 25.7897 9.7526C25.5387 9.53124 25.4129 9.25158 25.4129 8.91351C25.4129 8.50248 25.5705 8.18384 25.8863 7.95766C26.2038 7.72902 26.6502 7.61473 27.2245 7.61473H27.8896V7.30463C27.8896 7.06871 27.8185 6.88144 27.6752 6.74279C27.5324 6.60173 27.3216 6.53123 27.043 6.53123C26.7993 6.53123 26.5944 6.59199 26.4294 6.71362C26.2643 6.83525 26.182 6.98238 26.182 7.15503H25.4941C25.4941 6.95803 25.5647 6.76835 25.7048 6.58591C25.8481 6.40106 26.0403 6.25518 26.2818 6.14816C26.5254 6.04115 26.7929 5.98762 27.0838 5.98762C27.5446 5.98762 27.9061 6.10191 28.1672 6.33055C28.4284 6.55674 28.5637 6.86929 28.5738 7.26812V9.08495C28.5738 9.44733 28.6205 9.73558 28.7145 9.94961V10.008H27.9968ZM26.862 9.49358C27.0764 9.49358 27.2797 9.43884 27.4719 9.32936C27.6645 9.21994 27.8036 9.07767 27.8896 8.90256V8.09265H27.354C26.5159 8.09265 26.0965 8.33465 26.0965 8.81865C26.0965 9.03022 26.1682 9.19564 26.311 9.3148C26.4543 9.43397 26.638 9.49358 26.862 9.49358ZM30.7623 8.18018L30.3334 8.62164V10.008H29.6498V4.4043H30.3334V7.7935L30.6997 7.35937L31.9455 6.06058H32.7773L31.2209 7.70959L32.9583 10.008H32.1562L30.7623 8.18018ZM35.0693 10.0809C34.5273 10.0809 34.0857 9.90582 33.746 9.5556C33.4057 9.20292 33.2359 8.73227 33.2359 8.14372V8.01968C33.2359 7.62808 33.3107 7.27907 33.4609 6.97264C33.6138 6.66375 33.8261 6.42295 34.0968 6.25031C34.3707 6.0752 34.6664 5.98762 34.9843 5.98762C35.5045 5.98762 35.9085 6.15665 36.1967 6.49472C36.4855 6.83278 36.6293 7.31678 36.6293 7.94672V8.22764H33.9196C33.9296 8.61677 34.0438 8.93174 34.2635 9.17253C34.4854 9.41087 34.7662 9.53004 35.1064 9.53004C35.3479 9.53004 35.5523 9.48137 35.72 9.3841C35.8878 9.28683 36.0343 9.15792 36.1601 8.99743L36.5778 9.31847C36.2424 9.82677 35.7397 10.0809 35.0693 10.0809ZM34.9843 6.54217C34.7083 6.54217 34.4764 6.64185 34.289 6.84132C34.1021 7.03833 33.9859 7.31558 33.9418 7.67308H35.9456V7.62201C35.926 7.27907 35.832 7.01397 35.6643 6.82671C35.4971 6.63698 35.2699 6.54217 34.9843 6.54217ZM42.7591 10.008H39.2319V9.52275L41.0955 7.47974C41.3715 7.17085 41.561 6.92036 41.6645 6.72823C41.7707 6.53364 41.8238 6.33296 41.8238 6.12627C41.8238 5.84896 41.7388 5.62158 41.5685 5.44401C41.3986 5.26649 41.1719 5.1777 40.8885 5.1777C40.5482 5.1777 40.2834 5.27377 40.0934 5.4659C39.906 5.65563 39.8126 5.92073 39.8126 6.26125H39.1283C39.1283 5.77238 39.2876 5.37717 39.6055 5.07556C39.9256 4.77395 40.3534 4.6232 40.8885 4.6232C41.3885 4.6232 41.784 4.75331 42.0748 5.01354C42.3657 5.27136 42.5112 5.6155 42.5112 6.04597C42.5112 6.56889 42.1736 7.19154 41.4984 7.91387L40.0567 9.45707H42.7591V10.008ZM46.859 7.74243C46.859 8.53286 46.7221 9.12021 46.4487 9.50453C46.1748 9.88879 45.7475 10.0809 45.1657 10.0809C44.5914 10.0809 44.1662 9.89366 43.8902 9.51909C43.6142 9.1421 43.4714 8.58026 43.4613 7.83363V6.93252C43.4613 6.15178 43.5983 5.57171 43.8716 5.19232C44.1455 4.81287 44.5744 4.6232 45.1583 4.6232C45.7374 4.6232 46.1636 4.80679 46.4375 5.17409C46.7109 5.53887 46.8516 6.10317 46.859 6.86683V7.74243ZM46.1748 6.81943C46.1748 6.24784 46.0936 5.83194 45.9311 5.57171C45.7682 5.30907 45.5108 5.1777 45.1583 5.1777C44.8085 5.1777 44.5532 5.30782 44.3929 5.5681C44.2326 5.82833 44.1503 6.22841 44.1455 6.76835V7.84819C44.1455 8.42218 44.2289 8.84662 44.3966 9.12146C44.567 9.39384 44.8228 9.53004 45.1657 9.53004C45.5033 9.53004 45.7533 9.40113 45.9163 9.14331C46.0814 8.88554 46.1674 8.47938 46.1748 7.92482V6.81943ZM49.9828 10.008H49.2954V5.50969L47.9164 6.00951V5.3966L49.8756 4.6706H49.9828V10.008ZM55.251 6.08248C55.251 6.34758 55.1794 6.5835 55.0366 6.79025C54.8959 6.99694 54.7048 7.1587 54.4633 7.27545C54.7446 7.39462 54.9665 7.56853 55.129 7.79712C55.294 8.02576 55.3768 8.28478 55.3768 8.57419C55.3768 9.03388 55.2187 9.39992 54.9034 9.6723C54.5902 9.94473 54.1778 10.0809 53.665 10.0809C53.1475 10.0809 52.7318 9.94473 52.4192 9.6723C52.1087 9.39751 51.9531 9.03147 51.9531 8.57419C51.9531 8.28719 52.0322 8.02817 52.1899 7.79712C52.3502 7.56606 52.5705 7.39095 52.8518 7.27179C52.6124 7.15503 52.424 6.99333 52.286 6.78658C52.1479 6.57983 52.0789 6.34517 52.0789 6.08248C52.0789 5.63494 52.2244 5.27985 52.5153 5.01721C52.8061 4.75452 53.1894 4.6232 53.665 4.6232C54.1379 4.6232 54.5201 4.75452 54.811 5.01721C55.1045 5.27985 55.251 5.63494 55.251 6.08248ZM54.6926 8.55963C54.6926 8.26289 54.5966 8.02089 54.4044 7.83363C54.2144 7.64636 53.9654 7.55271 53.6576 7.55271C53.3497 7.55271 53.1018 7.64511 52.9144 7.82996C52.7297 8.01481 52.6374 8.25802 52.6374 8.55963C52.6374 8.86118 52.7271 9.09831 52.907 9.27101C53.0896 9.44371 53.3423 9.53004 53.665 9.53004C53.9856 9.53004 54.2367 9.44371 54.4193 9.27101C54.6013 9.0959 54.6926 8.85877 54.6926 8.55963ZM53.665 5.1777C53.3964 5.1777 53.1782 5.26041 53.0105 5.42578C52.8454 5.58874 52.7631 5.8113 52.7631 6.09343C52.7631 6.3634 52.8444 6.5823 53.0068 6.75007C53.1719 6.91549 53.3916 6.99815 53.665 6.99815C53.9384 6.99815 54.1565 6.91549 54.3195 6.75007C54.4846 6.5823 54.5668 6.3634 54.5668 6.09343C54.5668 5.82345 54.4819 5.60335 54.312 5.43311C54.1417 5.26282 53.9262 5.1777 53.665 5.1777Z" fill="url(#paint0_linear)"/>
<path fill-rule="evenodd" clip-rule="evenodd" d="M63.1036 0.976005C63.1486 1.06369 63.256 1.09821 63.3435 1.05311C63.4309 1.00806 63.4655 0.900419 63.4204 0.812733C63.3754 0.725048 63.268 0.690528 63.1806 0.735628C63.0931 0.780728 63.0586 0.888319 63.1036 0.976005ZM62.7806 1.27934C62.788 1.27615 62.7954 1.27248 62.8026 1.26829C62.8961 1.21418 62.9301 1.09769 62.8785 1.00811C62.8269 0.918542 62.7093 0.889785 62.6157 0.943895C62.6119 0.946147 62.6081 0.948452 62.6045 0.950862C59.0867 2.99393 57.8783 7.50168 59.8988 11.0357C59.9023 11.0453 59.9066 11.0546 59.9119 11.0637C59.9615 11.15 60.0716 11.1796 60.1577 11.1297C60.2438 11.0799 60.2733 10.9696 60.2237 10.8833C60.2232 10.8825 60.2227 10.8817 60.2222 10.8809C60.2217 10.8801 60.2212 10.8793 60.2207 10.8785C60.1999 10.8437 60.1793 10.8086 60.1591 10.7734C58.2551 7.46868 59.3849 3.24295 62.6826 1.33497C62.7152 1.31611 62.7479 1.29757 62.7806 1.27934Z" fill="url(#paint1_linear)"/>
<path fill-rule="evenodd" clip-rule="evenodd" d="M63.1036 0.976005C63.1486 1.06369 63.256 1.09821 63.3435 1.05311C63.4309 1.00806 63.4655 0.900419 63.4204 0.812733C63.3754 0.725048 63.268 0.690528 63.1806 0.735628C63.0931 0.780728 63.0586 0.888319 63.1036 0.976005ZM62.7806 1.27934C62.788 1.27615 62.7954 1.27248 62.8026 1.26829C62.8961 1.21418 62.9301 1.09769 62.8785 1.00811C62.8269 0.918542 62.7093 0.889785 62.6157 0.943895C62.6119 0.946147 62.6081 0.948452 62.6045 0.950862C59.0867 2.99393 57.8783 7.50168 59.8988 11.0357C59.9023 11.0453 59.9066 11.0546 59.9119 11.0637C59.9615 11.15 60.0716 11.1796 60.1577 11.1297C60.2438 11.0799 60.2733 10.9696 60.2237 10.8833C60.2232 10.8825 60.2227 10.8817 60.2222 10.8809C60.2217 10.8801 60.2212 10.8793 60.2207 10.8785C60.1999 10.8437 60.1793 10.8086 60.1591 10.7734C58.2551 7.46868 59.3849 3.24295 62.6826 1.33497C62.7152 1.31611 62.7479 1.29757 62.7806 1.27934Z" fill="url(#paint2_linear)"/>
<path fill-rule="evenodd" clip-rule="evenodd" d="M73.4518 8.05491C73.3538 8.04674 73.2677 8.11976 73.2596 8.21803C73.2514 8.31624 73.3243 8.40251 73.4223 8.41068C73.5203 8.41885 73.6064 8.34583 73.6145 8.24762C73.6227 8.14935 73.5498 8.06314 73.4518 8.05491ZM73.3661 7.61973C73.3649 7.62774 73.3641 7.63592 73.3638 7.64424C73.3601 7.75241 73.4407 7.84303 73.5439 7.84654C73.647 7.8501 73.7336 7.76535 73.7374 7.65713C73.7375 7.65273 73.7375 7.64828 73.7374 7.64393C73.8706 3.57152 70.6946 0.157435 66.6332 0.00379136C66.6233 0.00172232 66.613 0.000475394 66.6025 0.000108727C66.5032 -0.00331699 66.4198 0.074631 66.4164 0.174207C66.413 0.273778 66.4909 0.357284 66.5902 0.36071C66.5911 0.360746 66.5921 0.360773 66.593 0.360788C66.5939 0.360804 66.5948 0.36082 66.5958 0.36082C66.6362 0.361511 66.6769 0.362611 66.7175 0.36401C70.523 0.495266 73.5018 3.69331 73.3709 7.5069C73.3696 7.54456 73.368 7.58217 73.3661 7.61973Z" fill="url(#paint3_linear)"/>
<path fill-rule="evenodd" clip-rule="evenodd" d="M73.4518 8.05491C73.3538 8.04674 73.2677 8.11976 73.2596 8.21803C73.2514 8.31624 73.3243 8.40251 73.4223 8.41068C73.5203 8.41885 73.6064 8.34583 73.6145 8.24762C73.6227 8.14935 73.5498 8.06314 73.4518 8.05491ZM73.3661 7.61973C73.3649 7.62774 73.3641 7.63592 73.3638 7.64424C73.3601 7.75241 73.4407 7.84303 73.5439 7.84654C73.647 7.8501 73.7336 7.76535 73.7374 7.65713C73.7375 7.65273 73.7375 7.64828 73.7374 7.64393C73.8706 3.57152 70.6946 0.157435 66.6332 0.00379136C66.6233 0.00172232 66.613 0.000475394 66.6025 0.000108727C66.5032 -0.00331699 66.4198 0.074631 66.4164 0.174207C66.413 0.273778 66.4909 0.357284 66.5902 0.36071C66.5911 0.360746 66.5921 0.360773 66.593 0.360788C66.5939 0.360804 66.5948 0.36082 66.5958 0.36082C66.6362 0.361511 66.6769 0.362611 66.7175 0.36401C70.523 0.495266 73.5018 3.69331 73.3709 7.5069C73.3696 7.54456 73.368 7.58217 73.3661 7.61973Z" fill="url(#paint4_linear)"/>
<path fill-rule="evenodd" clip-rule="evenodd" d="M62.5884 13.4927C62.6387 13.408 62.6108 13.2984 62.5262 13.2482C62.4416 13.1978 62.3323 13.2257 62.2821 13.3105C62.2318 13.3953 62.2597 13.5048 62.3443 13.5551C62.4289 13.6054 62.5382 13.5775 62.5884 13.4927ZM63.0164 13.6059C63.0098 13.6013 63.0028 13.597 62.9954 13.5931C62.9 13.5424 62.7834 13.5754 62.7351 13.6668C62.6868 13.7582 62.725 13.8734 62.8205 13.9241C62.8244 13.9261 62.8283 13.9281 62.8323 13.9298C66.4283 15.8313 70.8812 14.4626 72.7956 10.8697C72.8018 10.8617 72.8075 10.853 72.8123 10.8438C72.8588 10.7557 72.8254 10.6465 72.7375 10.5999C72.6497 10.5533 72.5407 10.5868 72.4942 10.6748C72.4937 10.6757 72.4933 10.6766 72.4929 10.6774C72.4924 10.6782 72.492 10.679 72.4916 10.6799C72.4733 10.716 72.4545 10.7521 72.4355 10.7881C70.6531 14.1602 66.4804 15.4457 63.1156 13.6595C63.0823 13.6418 63.0493 13.624 63.0164 13.6059Z" fill="url(#paint5_linear)"/>
<path fill-rule="evenodd" clip-rule="evenodd" d="M62.5884 13.4927C62.6387 13.408 62.6108 13.2984 62.5262 13.2482C62.4416 13.1978 62.3323 13.2257 62.2821 13.3105C62.2318 13.3953 62.2597 13.5048 62.3443 13.5551C62.4289 13.6054 62.5382 13.5775 62.5884 13.4927ZM63.0164 13.6059C63.0098 13.6013 63.0028 13.597 62.9954 13.5931C62.9 13.5424 62.7834 13.5754 62.7351 13.6668C62.6868 13.7582 62.725 13.8734 62.8205 13.9241C62.8244 13.9261 62.8283 13.9281 62.8323 13.9298C66.4283 15.8313 70.8812 14.4626 72.7956 10.8697C72.8018 10.8617 72.8075 10.853 72.8123 10.8438C72.8588 10.7557 72.8254 10.6465 72.7375 10.5999C72.6497 10.5533 72.5407 10.5868 72.4942 10.6748C72.4937 10.6757 72.4933 10.6766 72.4929 10.6774C72.4924 10.6782 72.492 10.679 72.4916 10.6799C72.4733 10.716 72.4545 10.7521 72.4355 10.7881C70.6531 14.1602 66.4804 15.4457 63.1156 13.6595C63.0823 13.6418 63.0493 13.624 63.0164 13.6059Z" fill="url(#paint6_linear)"/>
<path fill-rule="evenodd" clip-rule="evenodd" d="M69.0959 11.0884C69.1192 11.1351 69.1231 11.1896 69.1076 11.2519C69.0843 11.3453 69.0183 11.392 68.9095 11.392C68.824 11.3686 68.7658 11.3336 68.7347 11.2869C68.7036 11.2324 68.6959 11.174 68.7114 11.1118C68.7503 11.0183 68.8163 10.9716 68.9095 10.9716C68.9406 10.9716 68.9639 10.9755 68.9794 10.9833C69.0338 10.9989 69.0726 11.0339 69.0959 11.0884ZM63.7943 11.3803C63.74 11.3803 63.6934 11.3608 63.6545 11.3219C63.6235 11.283 63.6079 11.2363 63.6079 11.1818V7.52701C63.6079 7.40245 63.6701 7.34017 63.7943 7.34017C63.8487 7.34017 63.8953 7.3596 63.9341 7.39858C63.973 7.42969 63.9924 7.47249 63.9924 7.52701V11.1818C63.9924 11.2363 63.973 11.283 63.9341 11.3219C63.8953 11.3608 63.8487 11.3803 63.7943 11.3803ZM65.7984 6.96654C65.7208 6.96654 65.6625 6.93537 65.6237 6.87309L64.0973 4.11738C64.0662 4.07071 64.0584 4.02398 64.074 3.97726C64.0895 3.92279 64.1206 3.87999 64.1672 3.84882C64.2138 3.83327 64.2449 3.82546 64.2604 3.82546C64.3381 3.82546 64.3925 3.8605 64.4235 3.93054L65.9616 6.67462C65.9927 6.72129 66.0004 6.77189 65.9849 6.82637C65.9694 6.87309 65.9383 6.91201 65.8917 6.94318C65.8451 6.95873 65.814 6.96654 65.7984 6.96654ZM62.769 11.3803C62.7146 11.3803 62.668 11.3608 62.6292 11.3219C62.5903 11.283 62.5709 11.2363 62.5709 11.1818V3.4051C62.5709 3.3039 62.6214 3.24162 62.7224 3.21826C62.769 3.21826 62.8079 3.22607 62.8389 3.24162C62.8778 3.24943 62.9088 3.27667 62.9321 3.32339L65.6819 8.60124L68.292 3.93054C68.3308 3.86831 68.3852 3.83714 68.4551 3.83714C68.5017 3.83714 68.5328 3.84495 68.5483 3.86051C68.5949 3.88387 68.626 3.92279 68.6415 3.97726C68.657 4.02398 68.6532 4.07071 68.6299 4.11738L65.8451 9.10337C65.7984 9.1812 65.7402 9.21232 65.6703 9.19676C65.5848 9.19676 65.5305 9.16565 65.5072 9.10337L62.9554 4.19915V11.1818C62.9554 11.2363 62.936 11.283 62.8972 11.3219C62.8661 11.3608 62.8234 11.3803 62.769 11.3803ZM68.9095 10.7264C68.7852 10.7264 68.7231 10.6642 68.7231 10.5396V7.52701C68.7231 7.40245 68.7852 7.34017 68.9095 7.34017C68.9639 7.34017 69.0105 7.3596 69.0493 7.39858C69.0882 7.42969 69.1076 7.47249 69.1076 7.52701V10.5396C69.1076 10.5941 69.0882 10.6408 69.0493 10.6797C69.0105 10.7108 68.9639 10.7264 68.9095 10.7264ZM69.9582 11.3803C69.9038 11.3803 69.8572 11.3608 69.8183 11.3219C69.7795 11.283 69.7601 11.2363 69.7601 11.1818V4.1641L66.3811 10.3644C66.3422 10.4345 66.284 10.4695 66.2063 10.4695C66.183 10.4695 66.1519 10.4578 66.113 10.4345C66.0664 10.4112 66.0354 10.3761 66.0198 10.3294C66.0043 10.2749 66.0121 10.2243 66.0431 10.1776L69.7834 3.31171C69.8067 3.27279 69.8378 3.24943 69.8766 3.24162C69.9154 3.22607 69.9581 3.21826 70.0048 3.21826C70.098 3.24162 70.1446 3.3039 70.1446 3.4051V11.1818C70.1446 11.2363 70.1252 11.283 70.0863 11.3219C70.0553 11.3608 70.0126 11.3803 69.9582 11.3803ZM64.1206 3.47907C64.1206 3.58865 64.032 3.67759 63.9225 3.67759C63.8131 3.67759 63.7244 3.58865 63.7244 3.47907C63.7244 3.36938 63.8131 3.28054 63.9225 3.28054C64.032 3.28054 64.1206 3.36938 64.1206 3.47907ZM63.8021 7.18057C63.9094 7.18057 63.9963 7.0934 63.9963 6.98597C63.9963 6.87849 63.9094 6.79138 63.8021 6.79138C63.6949 6.79138 63.6079 6.87849 63.6079 6.98597C63.6079 7.0934 63.6949 7.18057 63.8021 7.18057Z" fill="url(#paint7_linear)"/>
<path fill-rule="evenodd" clip-rule="evenodd" d="M69.0959 11.0884C69.1192 11.1351 69.1231 11.1896 69.1076 11.2519C69.0843 11.3453 69.0183 11.392 68.9095 11.392C68.824 11.3686 68.7658 11.3336 68.7347 11.2869C68.7036 11.2324 68.6959 11.174 68.7114 11.1118C68.7503 11.0183 68.8163 10.9716 68.9095 10.9716C68.9406 10.9716 68.9639 10.9755 68.9794 10.9833C69.0338 10.9989 69.0726 11.0339 69.0959 11.0884ZM63.7943 11.3803C63.74 11.3803 63.6934 11.3608 63.6545 11.3219C63.6235 11.283 63.6079 11.2363 63.6079 11.1818V7.52701C63.6079 7.40245 63.6701 7.34017 63.7943 7.34017C63.8487 7.34017 63.8953 7.3596 63.9341 7.39858C63.973 7.42969 63.9924 7.47249 63.9924 7.52701V11.1818C63.9924 11.2363 63.973 11.283 63.9341 11.3219C63.8953 11.3608 63.8487 11.3803 63.7943 11.3803ZM65.7984 6.96654C65.7208 6.96654 65.6625 6.93537 65.6237 6.87309L64.0973 4.11738C64.0662 4.07071 64.0584 4.02398 64.074 3.97726C64.0895 3.92279 64.1206 3.87999 64.1672 3.84882C64.2138 3.83327 64.2449 3.82546 64.2604 3.82546C64.3381 3.82546 64.3925 3.8605 64.4235 3.93054L65.9616 6.67462C65.9927 6.72129 66.0004 6.77189 65.9849 6.82637C65.9694 6.87309 65.9383 6.91201 65.8917 6.94318C65.8451 6.95873 65.814 6.96654 65.7984 6.96654ZM62.769 11.3803C62.7146 11.3803 62.668 11.3608 62.6292 11.3219C62.5903 11.283 62.5709 11.2363 62.5709 11.1818V3.4051C62.5709 3.3039 62.6214 3.24162 62.7224 3.21826C62.769 3.21826 62.8079 3.22607 62.8389 3.24162C62.8778 3.24943 62.9088 3.27667 62.9321 3.32339L65.6819 8.60124L68.292 3.93054C68.3308 3.86831 68.3852 3.83714 68.4551 3.83714C68.5017 3.83714 68.5328 3.84495 68.5483 3.86051C68.5949 3.88387 68.626 3.92279 68.6415 3.97726C68.657 4.02398 68.6532 4.07071 68.6299 4.11738L65.8451 9.10337C65.7984 9.1812 65.7402 9.21232 65.6703 9.19676C65.5848 9.19676 65.5305 9.16565 65.5072 9.10337L62.9554 4.19915V11.1818C62.9554 11.2363 62.936 11.283 62.8972 11.3219C62.8661 11.3608 62.8234 11.3803 62.769 11.3803ZM68.9095 10.7264C68.7852 10.7264 68.7231 10.6642 68.7231 10.5396V7.52701C68.7231 7.40245 68.7852 7.34017 68.9095 7.34017C68.9639 7.34017 69.0105 7.3596 69.0493 7.39858C69.0882 7.42969 69.1076 7.47249 69.1076 7.52701V10.5396C69.1076 10.5941 69.0882 10.6408 69.0493 10.6797C69.0105 10.7108 68.9639 10.7264 68.9095 10.7264ZM69.9582 11.3803C69.9038 11.3803 69.8572 11.3608 69.8183 11.3219C69.7795 11.283 69.7601 11.2363 69.7601 11.1818V4.1641L66.3811 10.3644C66.3422 10.4345 66.284 10.4695 66.2063 10.4695C66.183 10.4695 66.1519 10.4578 66.113 10.4345C66.0664 10.4112 66.0354 10.3761 66.0198 10.3294C66.0043 10.2749 66.0121 10.2243 66.0431 10.1776L69.7834 3.31171C69.8067 3.27279 69.8378 3.24943 69.8766 3.24162C69.9154 3.22607 69.9581 3.21826 70.0048 3.21826C70.098 3.24162 70.1446 3.3039 70.1446 3.4051V11.1818C70.1446 11.2363 70.1252 11.283 70.0863 11.3219C70.0553 11.3608 70.0126 11.3803 69.9582 11.3803ZM64.1206 3.47907C64.1206 3.58865 64.032 3.67759 63.9225 3.67759C63.8131 3.67759 63.7244 3.58865 63.7244 3.47907C63.7244 3.36938 63.8131 3.28054 63.9225 3.28054C64.032 3.28054 64.1206 3.36938 64.1206 3.47907ZM63.8021 7.18057C63.9094 7.18057 63.9963 7.0934 63.9963 6.98597C63.9963 6.87849 63.9094 6.79138 63.8021 6.79138C63.6949 6.79138 63.6079 6.87849 63.6079 6.98597C63.6079 7.0934 63.6949 7.18057 63.8021 7.18057Z" fill="url(#paint8_linear)"/>
<defs>
<linearGradient id="paint0_linear" x1="66.3577" y1="3.21826" x2="66.3577" y2="11.392" gradientUnits="userSpaceOnUse">
<stop stop-color="#16BCDB"/>
<stop offset="1" stop-color="white" stop-opacity="0"/>
</linearGradient>
<linearGradient id="paint1_linear" x1="66.3577" y1="3.21826" x2="66.3577" y2="11.392" gradientUnits="userSpaceOnUse">
<stop stop-color="#16BCDB"/>
<stop offset="1" stop-color="white" stop-opacity="0"/>
</linearGradient>
<linearGradient id="paint2_linear" x1="66.3577" y1="3.21826" x2="66.3577" y2="11.392" gradientUnits="userSpaceOnUse">
<stop stop-color="#16BCDB"/>
<stop offset="1" stop-color="white" stop-opacity="0"/>
</linearGradient>
<linearGradient id="paint3_linear" x1="66.3577" y1="3.21826" x2="66.3577" y2="11.392" gradientUnits="userSpaceOnUse">
<stop stop-color="#16BCDB"/>
<stop offset="1" stop-color="white" stop-opacity="0"/>
</linearGradient>
<linearGradient id="paint4_linear" x1="66.3577" y1="3.21826" x2="66.3577" y2="11.392" gradientUnits="userSpaceOnUse">
<stop stop-color="#16BCDB"/>
<stop offset="1" stop-color="white" stop-opacity="0"/>
</linearGradient>
<linearGradient id="paint5_linear" x1="66.3577" y1="3.21826" x2="66.3577" y2="11.392" gradientUnits="userSpaceOnUse">
<stop stop-color="#16BCDB"/>
<stop offset="1" stop-color="white" stop-opacity="0"/>
</linearGradient>
<linearGradient id="paint6_linear" x1="66.3577" y1="3.21826" x2="66.3577" y2="11.392" gradientUnits="userSpaceOnUse">
<stop stop-color="#16BCDB"/>
<stop offset="1" stop-color="white" stop-opacity="0"/>
</linearGradient>
<linearGradient id="paint7_linear" x1="66.3577" y1="3.21826" x2="66.3577" y2="11.392" gradientUnits="userSpaceOnUse">
<stop stop-color="#16BCDB"/>
<stop offset="1" stop-color="white" stop-opacity="0"/>
</linearGradient>
<linearGradient id="paint8_linear" x1="66.3577" y1="3.21826" x2="66.3577" y2="11.392" gradientUnits="userSpaceOnUse">
<stop stop-color="#16BCDB"/>
<stop offset="1" stop-color="white" stop-opacity="0"/>
</linearGradient>
</defs>
</svg>
