<svg width="18" height="18" viewBox="0 0 18 18" fill="none" xmlns="http://www.w3.org/2000/svg">
<g clip-path="url(#clip0)">
<path d="M4.51825 12.6786C3.12283 12.533 1.86465 12.1894 0.787447 11.3469C0.653791 11.2421 0.515794 11.141 0.393823 11.024C-0.077664 10.5711 -0.125171 10.0525 0.247909 9.51805C0.567072 9.0607 1.10284 8.93837 1.65973 9.20102C1.76756 9.25187 1.8703 9.3154 1.96871 9.38365C3.97625 10.763 6.7341 10.8011 8.7492 9.44567C8.94885 9.2926 9.16222 9.1678 9.40957 9.10412C9.89047 8.9806 10.339 9.15722 10.597 9.57805C10.8919 10.0586 10.8881 10.5276 10.5248 10.9007C9.96758 11.4726 9.29737 11.8865 8.55277 12.1752C7.8486 12.4482 7.0774 12.5857 6.31408 12.6769C6.42926 12.8023 6.48355 12.8639 6.55557 12.9363C7.59202 13.9777 8.63303 15.0147 9.66615 16.0593C10.0181 16.4153 10.0916 16.8566 9.89783 17.2706C9.68595 17.723 9.21165 18.0206 8.74657 17.9888C8.4519 17.9684 8.2221 17.8218 8.01795 17.6161C7.23575 16.829 6.43888 16.0565 5.67255 15.2545C5.44953 15.0213 5.34227 15.0654 5.14545 15.2679C4.35857 16.078 3.55887 16.8756 2.75446 17.6687C2.39326 18.0248 1.96343 18.0889 1.54454 17.8855C1.09926 17.6696 0.815917 17.2151 0.837787 16.7583C0.85287 16.4494 1.00481 16.2134 1.2169 16.0016C2.24263 14.9774 3.26554 13.9505 4.28882 12.9246C4.35649 12.8564 4.41965 12.784 4.51825 12.6786Z" fill="#E3E9CB"/>
<path d="M5.36828 9.11093C2.87888 9.10245 0.8376 7.03876 0.852112 4.54541C0.866437 2.02453 2.90905 -0.0069573 5.42295 1.79086e-05C7.94198 0.0068046 9.96383 2.06751 9.95115 4.61459C9.93833 7.10285 7.88295 9.11963 5.36828 9.11093ZM7.63073 4.55144C7.62638 3.31343 6.6404 2.32785 5.40485 2.32673C4.15893 2.32541 3.16411 3.32889 3.17372 4.5782C3.18296 5.8115 4.1774 6.7901 5.41635 6.78558C6.65153 6.78124 7.63485 5.78925 7.63073 4.55144Z" fill="#E3E9CB"/>
</g>
<defs>
<clipPath id="clip0">
<rect width="18" height="18" fill="white"/>
</clipPath>
</defs>
</svg>
