<svg width="20" height="20" viewBox="0 0 20 20" fill="none" xmlns="http://www.w3.org/2000/svg">
<path fill-rule="evenodd" clip-rule="evenodd" d="M19 10C19 14.9706 14.9706 19 10 19C5.02944 19 1 14.9706 1 10C1 5.02944 5.02944 1 10 1C14.9706 1 19 5.02944 19 10ZM20 10C20 15.5228 15.5228 20 10 20C4.47715 20 0 15.5228 0 10C0 4.47715 4.47715 0 10 0C15.5228 0 20 4.47715 20 10ZM9.375 11.7441C9.22852 12.1484 9.14941 12.6992 9.1377 13.3965H10.7637C10.7637 12.5059 10.9775 11.8232 11.4053 11.3486L12.3633 10.3994C13.3125 9.40332 13.7871 8.39258 13.7871 7.36719C13.7871 6.33008 13.4766 5.51562 12.8555 4.92383C12.2402 4.32617 11.3789 4.02734 10.2715 4.02734C9.20508 4.02734 8.33789 4.32031 7.66992 4.90625C7.00781 5.48633 6.6709 6.25098 6.65918 7.2002H8.28516C8.28516 6.66699 8.4668 6.24219 8.83008 5.92578C9.19336 5.60938 9.67383 5.45117 10.2715 5.45117C10.8867 5.45117 11.3555 5.62695 11.6777 5.97852C12 6.32422 12.1611 6.80469 12.1611 7.41992C12.1611 8.05859 11.915 8.65625 11.4229 9.21289L10.2715 10.3994C9.82031 10.8916 9.52148 11.3398 9.375 11.7441ZM9.30469 15.5234C9.14648 15.6992 9.06738 15.9189 9.06738 16.1826C9.06738 16.4463 9.14648 16.666 9.30469 16.8418C9.46875 17.0117 9.70898 17.0967 10.0254 17.0967C10.3418 17.0967 10.582 17.0117 10.7461 16.8418C10.9102 16.666 10.9922 16.4463 10.9922 16.1826C10.9922 15.9189 10.9102 15.6992 10.7461 15.5234C10.582 15.3418 10.3418 15.251 10.0254 15.251C9.70898 15.251 9.46875 15.3418 9.30469 15.5234Z" fill="#FDAD1E"/>
</svg>
