<svg width="38" height="38" viewBox="0 0 38 38" fill="none" xmlns="http://www.w3.org/2000/svg">
<path d="M17.2295 23.9941C17.249 22.832 17.3809 21.9141 17.625 21.2402C17.8691 20.5664 18.3672 19.8193 19.1191 18.999L21.0381 17.0215C21.8584 16.0938 22.2686 15.0977 22.2686 14.0332C22.2686 13.0078 22 12.207 21.4629 11.6309C20.9258 11.0449 20.1445 10.752 19.1191 10.752C18.123 10.752 17.3223 11.0156 16.7168 11.543C16.1113 12.0703 15.8086 12.7783 15.8086 13.667H13.0986C13.1182 12.085 13.6797 10.8105 14.7832 9.84375C15.8965 8.86719 17.3418 8.37891 19.1191 8.37891C20.9648 8.37891 22.4004 8.87695 23.4258 9.87305C24.4609 10.8594 24.9785 12.2168 24.9785 13.9453C24.9785 15.6543 24.1875 17.3389 22.6055 18.999L21.0088 20.5811C20.2959 21.3721 19.9395 22.5098 19.9395 23.9941H17.2295ZM17.1123 28.6377C17.1123 28.1982 17.2441 27.832 17.5078 27.5391C17.7812 27.2363 18.1816 27.085 18.709 27.085C19.2363 27.085 19.6367 27.2363 19.9102 27.5391C20.1836 27.832 20.3203 28.1982 20.3203 28.6377C20.3203 29.0771 20.1836 29.4434 19.9102 29.7363C19.6367 30.0195 19.2363 30.1611 18.709 30.1611C18.1816 30.1611 17.7812 30.0195 17.5078 29.7363C17.2441 29.4434 17.1123 29.0771 17.1123 28.6377Z" fill="#FDAD1E"/>
<path d="M36.2147 19C36.2147 28.967 28.3587 37 18.7248 37C9.09085 37 1.23486 28.967 1.23486 19C1.23486 9.03305 9.09085 1 18.7248 1C28.3587 1 36.2147 9.03305 36.2147 19Z" stroke="#FDAD1E" stroke-width="2"/>
</svg>
