<svg width="7" height="47" viewBox="0 0 7 47" fill="none" xmlns="http://www.w3.org/2000/svg">
<path d="M0 46.9999C0.0111047 47 0.0222155 47 0.0333323 47C3.88091 47 7 43.8809 7 40.0333V6.96666C7 3.11908 3.88091 0 0.0333323 0C0.0222155 0 0.0111047 2.60386e-05 0 7.8058e-05V46.9999Z" fill="#F47810" fill-opacity="0.3"/>
<path d="M1 17V6H2L2 17H1Z" fill="#F47810" fill-opacity="0.3"/>
<path d="M1 41V29H2V41H1Z" fill="#F47810" fill-opacity="0.3"/>
<path d="M4 9V20H5V9H4Z" fill="#F47810" fill-opacity="0.3"/>
<path d="M4 38V27H5V38H4Z" fill="#F47810" fill-opacity="0.3"/>
<path d="M1.5 25.6651L6 23.5L1.5 21.3349V25.6651Z" fill="#F47810" fill-opacity="0.3"/>
</svg>
