<svg width="24" height="21" viewBox="0 0 24 21" fill="none" xmlns="http://www.w3.org/2000/svg">
<path d="M23.8556 3.94013C23.7247 3.77331 23.5226 3.67561 23.3085 3.67561H5.71701L4.94868 0.764821C4.86947 0.464616 4.59434 0.255127 4.27937 0.255127H0.69153C0.309621 0.255127 0 0.560053 0 0.936172C0 1.31229 0.309621 1.61722 0.69153 1.61722H3.74459L4.51292 4.528C4.51283 4.52791 4.51292 4.52809 4.51292 4.528L7.22206 14.7864C7.30126 15.0866 7.5764 15.2961 7.89127 15.2961H20.599C20.9139 15.2961 21.189 15.0866 21.2682 14.7864L23.9776 4.528C24.0317 4.32405 23.9866 4.10685 23.8556 3.94013ZM10.8687 13.9341H8.42606L7.88279 11.8771H10.8687V13.9341ZM10.8687 10.5149H7.5231L6.97956 8.45663H10.8687V10.5149ZM10.8687 7.09454H6.61978L6.07661 5.0377H10.8687V7.09454ZM16.2389 13.9341H12.2518V11.8771H16.2389V13.9341ZM16.2389 10.5149H12.2518V8.45663H16.2389V10.5149ZM16.2389 7.09454H12.2518V5.0377H16.2389V7.09454ZM20.0644 13.9341H17.6219V11.8771H20.6077L20.0644 13.9341ZM20.9675 10.5149H17.6219V8.45663H21.5111L20.9675 10.5149ZM21.8709 7.09454H17.622V5.0377H22.4142L21.8709 7.09454Z" fill="#FDAD1E"/>
<path d="M9.72585 15.8503C8.33301 15.8503 7.19983 16.9663 7.19983 18.338C7.19983 19.7099 8.33301 20.826 9.72585 20.826C11.1186 20.826 12.2518 19.7099 12.2518 18.338C12.2518 16.9663 11.1187 15.8503 9.72585 15.8503ZM9.72585 19.464C9.09563 19.464 8.58289 18.9588 8.58289 18.338C8.58289 17.7173 9.09563 17.2124 9.72585 17.2124C10.356 17.2124 10.8687 17.7174 10.8687 18.338C10.8687 18.9589 10.3561 19.464 9.72585 19.464Z" fill="#FDAD1E"/>
<path d="M18.7646 15.8503C17.372 15.8503 16.239 16.9663 16.239 18.338C16.239 19.7099 17.372 20.826 18.7646 20.826C20.1575 20.826 21.2906 19.7099 21.2906 18.338C21.2906 16.9663 20.1574 15.8503 18.7646 15.8503ZM18.7646 19.464C18.1346 19.464 17.622 18.9588 17.622 18.338C17.622 17.7173 18.1346 17.2124 18.7646 17.2124C19.3949 17.2124 19.9076 17.7174 19.9076 18.338C19.9076 18.9589 19.3948 19.464 18.7646 19.464Z" fill="#FDAD1E"/>
</svg>
